%TF.GenerationSoftware,KiCad,Pcbnew,10.0.5*%
%TF.CreationDate,2026-08-20T07:30:59+05:30*%
%TF.ProjectId,USB 2.0.sch,55534220-322e-4302-9e73-63682e6b6963,rev?*%
%TF.SameCoordinates,Original*%
%TF.FileFunction,Legend,Top*%
%TF.FilePolarity,Positive*%
%FSLAX46Y46*%
G04 Gerber Fmt 4.6, Leading zero omitted, Abs format (unit mm)*
G04 Created by KiCad (PCBNEW 10.0.5) date 2026-08-20 07:30:59*
%MOMM*%
%LPD*%
G01*
G04 APERTURE LIST*
G04 Aperture macros list*
%AMRoundRect*
0 Rectangle with rounded corners*
0 $1 Rounding radius*
0 $2 $3 $4 $5 $6 $7 $8 $9 X,Y pos of 4 corners*
0 Add a 4 corners polygon primitive as box body*
4,1,4,$2,$3,$4,$5,$6,$7,$8,$9,$2,$3,0*
0 Add four circle primitives for the rounded corners*
1,1,$1+$1,$2,$3*
1,1,$1+$1,$4,$5*
1,1,$1+$1,$6,$7*
1,1,$1+$1,$8,$9*
0 Add four rect primitives between the rounded corners*
20,1,$1+$1,$2,$3,$4,$5,0*
20,1,$1+$1,$4,$5,$6,$7,0*
20,1,$1+$1,$6,$7,$8,$9,0*
20,1,$1+$1,$8,$9,$2,$3,0*%
G04 Aperture macros list end*
%ADD10C,0.150000*%
%ADD11C,0.120000*%
%TA.AperFunction,ComponentPad*%
%ADD12O,3.500000X1.900000*%
%TD*%
%TA.AperFunction,ComponentPad*%
%ADD13O,1.300000X3.200000*%
%TD*%
%TA.AperFunction,ComponentPad*%
%ADD14R,3.500000X3.500000*%
%TD*%
%TA.AperFunction,ComponentPad*%
%ADD15RoundRect,0.750000X-0.750000X-1.000000X0.750000X-1.000000X0.750000X1.000000X-0.750000X1.000000X0*%
%TD*%
%TA.AperFunction,ComponentPad*%
%ADD16RoundRect,0.875000X-0.875000X-0.875000X0.875000X-0.875000X0.875000X0.875000X-0.875000X0.875000X0*%
%TD*%
%TA.AperFunction,ComponentPad*%
%ADD17C,2.000000*%
%TD*%
%TA.AperFunction,ViaPad*%
%ADD18C,0.600000*%
%TD*%
%TA.AperFunction,Conductor*%
%ADD19C,0.200000*%
%TD*%
%ADD20C,1.100000*%
%ADD21O,3.500000X1.900000*%
%ADD22O,1.300000X3.200000*%
%ADD23R,3.500000X3.500000*%
%ADD24RoundRect,0.750000X-0.750000X-1.000000X0.750000X-1.000000X0.750000X1.000000X-0.750000X1.000000X0*%
%ADD25RoundRect,0.875000X-0.875000X-0.875000X0.875000X-0.875000X0.875000X0.875000X-0.875000X0.875000X0*%
%ADD26C,2.000000*%
%TA.AperFunction,Profile*%
%ADD27C,0.050000*%
%TD*%
%TA.AperFunction,SMDPad,CuDef*%
%ADD28RoundRect,0.200000X-0.200000X-0.275000X0.200000X-0.275000X0.200000X0.275000X-0.200000X0.275000X0*%
%TD*%
%TA.AperFunction,SMDPad,CuDef*%
%ADD29RoundRect,0.225000X-0.225000X-0.250000X0.225000X-0.250000X0.225000X0.250000X-0.225000X0.250000X0*%
%TD*%
%TA.AperFunction,SMDPad,CuDef*%
%ADD30RoundRect,0.250000X1.000000X0.300000X-1.000000X0.300000X-1.000000X-0.300000X1.000000X-0.300000X0*%
%TD*%
%TA.AperFunction,SMDPad,CuDef*%
%ADD31RoundRect,0.200000X0.200000X0.275000X-0.200000X0.275000X-0.200000X-0.275000X0.200000X-0.275000X0*%
%TD*%
%TA.AperFunction,SMDPad,CuDef*%
%ADD32RoundRect,0.150000X-0.150000X0.512500X-0.150000X-0.512500X0.150000X-0.512500X0.150000X0.512500X0*%
%TD*%
%TA.AperFunction,SMDPad,CuDef*%
%ADD33RoundRect,0.250000X-0.325000X-0.650000X0.325000X-0.650000X0.325000X0.650000X-0.325000X0.650000X0*%
%TD*%
%TA.AperFunction,SMDPad,CuDef*%
%ADD34RoundRect,0.225000X0.225000X0.250000X-0.225000X0.250000X-0.225000X-0.250000X0.225000X-0.250000X0*%
%TD*%
%TA.AperFunction,SMDPad,CuDef*%
%ADD35RoundRect,0.225000X0.250000X-0.225000X0.250000X0.225000X-0.250000X0.225000X-0.250000X-0.225000X0*%
%TD*%
%TA.AperFunction,SMDPad,CuDef*%
%ADD36RoundRect,0.250000X0.375000X0.625000X-0.375000X0.625000X-0.375000X-0.625000X0.375000X-0.625000X0*%
%TD*%
%TA.AperFunction,SMDPad,CuDef*%
%ADD37RoundRect,0.250000X-0.650000X0.412500X-0.650000X-0.412500X0.650000X-0.412500X0.650000X0.412500X0*%
%TD*%
%TA.AperFunction,SMDPad,CuDef*%
%ADD38RoundRect,0.250000X0.350000X-0.450000X0.350000X0.450000X-0.350000X0.450000X-0.350000X-0.450000X0*%
%TD*%
%TA.AperFunction,SMDPad,CuDef*%
%ADD39RoundRect,0.218750X-0.218750X-0.256250X0.218750X-0.256250X0.218750X0.256250X-0.218750X0.256250X0*%
%TD*%
%TA.AperFunction,SMDPad,CuDef*%
%ADD40RoundRect,0.250000X-0.250000X-0.475000X0.250000X-0.475000X0.250000X0.475000X-0.250000X0.475000X0*%
%TD*%
%TA.AperFunction,SMDPad,CuDef*%
%ADD41RoundRect,0.300000X-0.300000X0.700000X-0.300000X-0.700000X0.300000X-0.700000X0.300000X0.700000X0*%
%TD*%
%TA.AperFunction,SMDPad,CuDef*%
%ADD42RoundRect,0.218750X0.218750X0.256250X-0.218750X0.256250X-0.218750X-0.256250X0.218750X-0.256250X0*%
%TD*%
%TA.AperFunction,SMDPad,CuDef*%
%ADD43RoundRect,0.218750X-0.256250X0.218750X-0.256250X-0.218750X0.256250X-0.218750X0.256250X0.218750X0*%
%TD*%
%TA.AperFunction,SMDPad,CuDef*%
%ADD44RoundRect,0.150000X0.587500X0.150000X-0.587500X0.150000X-0.587500X-0.150000X0.587500X-0.150000X0*%
%TD*%
%TA.AperFunction,SMDPad,CuDef*%
%ADD45RoundRect,0.150000X0.512500X0.150000X-0.512500X0.150000X-0.512500X-0.150000X0.512500X-0.150000X0*%
%TD*%
%TA.AperFunction,SMDPad,CuDef*%
%ADD46RoundRect,0.250000X0.325000X0.650000X-0.325000X0.650000X-0.325000X-0.650000X0.325000X-0.650000X0*%
%TD*%
%TA.AperFunction,SMDPad,CuDef*%
%ADD47RoundRect,0.100000X-0.100000X0.850000X-0.100000X-0.850000X0.100000X-0.850000X0.100000X0.850000X0*%
%TD*%
G04 APERTURE END LIST*
D10*
X70333333Y-27024819D02*
X70000000Y-26548628D01*
X69761905Y-27024819D02*
X69761905Y-26024819D01*
X69761905Y-26024819D02*
X70142857Y-26024819D01*
X70142857Y-26024819D02*
X70238095Y-26072438D01*
X70238095Y-26072438D02*
X70285714Y-26120057D01*
X70285714Y-26120057D02*
X70333333Y-26215295D01*
X70333333Y-26215295D02*
X70333333Y-26358152D01*
X70333333Y-26358152D02*
X70285714Y-26453390D01*
X70285714Y-26453390D02*
X70238095Y-26501009D01*
X70238095Y-26501009D02*
X70142857Y-26548628D01*
X70142857Y-26548628D02*
X69761905Y-26548628D01*
X71190476Y-26358152D02*
X71190476Y-27024819D01*
X70952381Y-25977200D02*
X70714286Y-26691485D01*
X70714286Y-26691485D02*
X71333333Y-26691485D01*
X79582142Y-35859580D02*
X79534523Y-35907200D01*
X79534523Y-35907200D02*
X79391666Y-35954819D01*
X79391666Y-35954819D02*
X79296428Y-35954819D01*
X79296428Y-35954819D02*
X79153571Y-35907200D01*
X79153571Y-35907200D02*
X79058333Y-35811961D01*
X79058333Y-35811961D02*
X79010714Y-35716723D01*
X79010714Y-35716723D02*
X78963095Y-35526247D01*
X78963095Y-35526247D02*
X78963095Y-35383390D01*
X78963095Y-35383390D02*
X79010714Y-35192914D01*
X79010714Y-35192914D02*
X79058333Y-35097676D01*
X79058333Y-35097676D02*
X79153571Y-35002438D01*
X79153571Y-35002438D02*
X79296428Y-34954819D01*
X79296428Y-34954819D02*
X79391666Y-34954819D01*
X79391666Y-34954819D02*
X79534523Y-35002438D01*
X79534523Y-35002438D02*
X79582142Y-35050057D01*
X79963095Y-35050057D02*
X80010714Y-35002438D01*
X80010714Y-35002438D02*
X80105952Y-34954819D01*
X80105952Y-34954819D02*
X80344047Y-34954819D01*
X80344047Y-34954819D02*
X80439285Y-35002438D01*
X80439285Y-35002438D02*
X80486904Y-35050057D01*
X80486904Y-35050057D02*
X80534523Y-35145295D01*
X80534523Y-35145295D02*
X80534523Y-35240533D01*
X80534523Y-35240533D02*
X80486904Y-35383390D01*
X80486904Y-35383390D02*
X79915476Y-35954819D01*
X79915476Y-35954819D02*
X80534523Y-35954819D01*
X81486904Y-35954819D02*
X80915476Y-35954819D01*
X81201190Y-35954819D02*
X81201190Y-34954819D01*
X81201190Y-34954819D02*
X81105952Y-35097676D01*
X81105952Y-35097676D02*
X81010714Y-35192914D01*
X81010714Y-35192914D02*
X80915476Y-35240533D01*
X28166666Y-35454819D02*
X28166666Y-36169104D01*
X28166666Y-36169104D02*
X28119047Y-36311961D01*
X28119047Y-36311961D02*
X28023809Y-36407200D01*
X28023809Y-36407200D02*
X27880952Y-36454819D01*
X27880952Y-36454819D02*
X27785714Y-36454819D01*
X28595238Y-35550057D02*
X28642857Y-35502438D01*
X28642857Y-35502438D02*
X28738095Y-35454819D01*
X28738095Y-35454819D02*
X28976190Y-35454819D01*
X28976190Y-35454819D02*
X29071428Y-35502438D01*
X29071428Y-35502438D02*
X29119047Y-35550057D01*
X29119047Y-35550057D02*
X29166666Y-35645295D01*
X29166666Y-35645295D02*
X29166666Y-35740533D01*
X29166666Y-35740533D02*
X29119047Y-35883390D01*
X29119047Y-35883390D02*
X28547619Y-36454819D01*
X28547619Y-36454819D02*
X29166666Y-36454819D01*
X101833333Y-33384819D02*
X101500000Y-32908628D01*
X101261905Y-33384819D02*
X101261905Y-32384819D01*
X101261905Y-32384819D02*
X101642857Y-32384819D01*
X101642857Y-32384819D02*
X101738095Y-32432438D01*
X101738095Y-32432438D02*
X101785714Y-32480057D01*
X101785714Y-32480057D02*
X101833333Y-32575295D01*
X101833333Y-32575295D02*
X101833333Y-32718152D01*
X101833333Y-32718152D02*
X101785714Y-32813390D01*
X101785714Y-32813390D02*
X101738095Y-32861009D01*
X101738095Y-32861009D02*
X101642857Y-32908628D01*
X101642857Y-32908628D02*
X101261905Y-32908628D01*
X102404762Y-32813390D02*
X102309524Y-32765771D01*
X102309524Y-32765771D02*
X102261905Y-32718152D01*
X102261905Y-32718152D02*
X102214286Y-32622914D01*
X102214286Y-32622914D02*
X102214286Y-32575295D01*
X102214286Y-32575295D02*
X102261905Y-32480057D01*
X102261905Y-32480057D02*
X102309524Y-32432438D01*
X102309524Y-32432438D02*
X102404762Y-32384819D01*
X102404762Y-32384819D02*
X102595238Y-32384819D01*
X102595238Y-32384819D02*
X102690476Y-32432438D01*
X102690476Y-32432438D02*
X102738095Y-32480057D01*
X102738095Y-32480057D02*
X102785714Y-32575295D01*
X102785714Y-32575295D02*
X102785714Y-32622914D01*
X102785714Y-32622914D02*
X102738095Y-32718152D01*
X102738095Y-32718152D02*
X102690476Y-32765771D01*
X102690476Y-32765771D02*
X102595238Y-32813390D01*
X102595238Y-32813390D02*
X102404762Y-32813390D01*
X102404762Y-32813390D02*
X102309524Y-32861009D01*
X102309524Y-32861009D02*
X102261905Y-32908628D01*
X102261905Y-32908628D02*
X102214286Y-33003866D01*
X102214286Y-33003866D02*
X102214286Y-33194342D01*
X102214286Y-33194342D02*
X102261905Y-33289580D01*
X102261905Y-33289580D02*
X102309524Y-33337200D01*
X102309524Y-33337200D02*
X102404762Y-33384819D01*
X102404762Y-33384819D02*
X102595238Y-33384819D01*
X102595238Y-33384819D02*
X102690476Y-33337200D01*
X102690476Y-33337200D02*
X102738095Y-33289580D01*
X102738095Y-33289580D02*
X102785714Y-33194342D01*
X102785714Y-33194342D02*
X102785714Y-33003866D01*
X102785714Y-33003866D02*
X102738095Y-32908628D01*
X102738095Y-32908628D02*
X102690476Y-32861009D01*
X102690476Y-32861009D02*
X102595238Y-32813390D01*
X66738095Y-41954819D02*
X66738095Y-42764342D01*
X66738095Y-42764342D02*
X66785714Y-42859580D01*
X66785714Y-42859580D02*
X66833333Y-42907200D01*
X66833333Y-42907200D02*
X66928571Y-42954819D01*
X66928571Y-42954819D02*
X67119047Y-42954819D01*
X67119047Y-42954819D02*
X67214285Y-42907200D01*
X67214285Y-42907200D02*
X67261904Y-42859580D01*
X67261904Y-42859580D02*
X67309523Y-42764342D01*
X67309523Y-42764342D02*
X67309523Y-41954819D01*
X67738095Y-42050057D02*
X67785714Y-42002438D01*
X67785714Y-42002438D02*
X67880952Y-41954819D01*
X67880952Y-41954819D02*
X68119047Y-41954819D01*
X68119047Y-41954819D02*
X68214285Y-42002438D01*
X68214285Y-42002438D02*
X68261904Y-42050057D01*
X68261904Y-42050057D02*
X68309523Y-42145295D01*
X68309523Y-42145295D02*
X68309523Y-42240533D01*
X68309523Y-42240533D02*
X68261904Y-42383390D01*
X68261904Y-42383390D02*
X67690476Y-42954819D01*
X67690476Y-42954819D02*
X68309523Y-42954819D01*
X45572080Y-35166666D02*
X45619700Y-35214285D01*
X45619700Y-35214285D02*
X45667319Y-35357142D01*
X45667319Y-35357142D02*
X45667319Y-35452380D01*
X45667319Y-35452380D02*
X45619700Y-35595237D01*
X45619700Y-35595237D02*
X45524461Y-35690475D01*
X45524461Y-35690475D02*
X45429223Y-35738094D01*
X45429223Y-35738094D02*
X45238747Y-35785713D01*
X45238747Y-35785713D02*
X45095890Y-35785713D01*
X45095890Y-35785713D02*
X44905414Y-35738094D01*
X44905414Y-35738094D02*
X44810176Y-35690475D01*
X44810176Y-35690475D02*
X44714938Y-35595237D01*
X44714938Y-35595237D02*
X44667319Y-35452380D01*
X44667319Y-35452380D02*
X44667319Y-35357142D01*
X44667319Y-35357142D02*
X44714938Y-35214285D01*
X44714938Y-35214285D02*
X44762557Y-35166666D01*
X44762557Y-34785713D02*
X44714938Y-34738094D01*
X44714938Y-34738094D02*
X44667319Y-34642856D01*
X44667319Y-34642856D02*
X44667319Y-34404761D01*
X44667319Y-34404761D02*
X44714938Y-34309523D01*
X44714938Y-34309523D02*
X44762557Y-34261904D01*
X44762557Y-34261904D02*
X44857795Y-34214285D01*
X44857795Y-34214285D02*
X44953033Y-34214285D01*
X44953033Y-34214285D02*
X45095890Y-34261904D01*
X45095890Y-34261904D02*
X45667319Y-34833332D01*
X45667319Y-34833332D02*
X45667319Y-34214285D01*
X29016666Y-69954819D02*
X29016666Y-70669104D01*
X29016666Y-70669104D02*
X28969047Y-70811961D01*
X28969047Y-70811961D02*
X28873809Y-70907200D01*
X28873809Y-70907200D02*
X28730952Y-70954819D01*
X28730952Y-70954819D02*
X28635714Y-70954819D01*
X29921428Y-70288152D02*
X29921428Y-70954819D01*
X29683333Y-69907200D02*
X29445238Y-70621485D01*
X29445238Y-70621485D02*
X30064285Y-70621485D01*
X56333333Y-77359580D02*
X56285714Y-77407200D01*
X56285714Y-77407200D02*
X56142857Y-77454819D01*
X56142857Y-77454819D02*
X56047619Y-77454819D01*
X56047619Y-77454819D02*
X55904762Y-77407200D01*
X55904762Y-77407200D02*
X55809524Y-77311961D01*
X55809524Y-77311961D02*
X55761905Y-77216723D01*
X55761905Y-77216723D02*
X55714286Y-77026247D01*
X55714286Y-77026247D02*
X55714286Y-76883390D01*
X55714286Y-76883390D02*
X55761905Y-76692914D01*
X55761905Y-76692914D02*
X55809524Y-76597676D01*
X55809524Y-76597676D02*
X55904762Y-76502438D01*
X55904762Y-76502438D02*
X56047619Y-76454819D01*
X56047619Y-76454819D02*
X56142857Y-76454819D01*
X56142857Y-76454819D02*
X56285714Y-76502438D01*
X56285714Y-76502438D02*
X56333333Y-76550057D01*
X56904762Y-76883390D02*
X56809524Y-76835771D01*
X56809524Y-76835771D02*
X56761905Y-76788152D01*
X56761905Y-76788152D02*
X56714286Y-76692914D01*
X56714286Y-76692914D02*
X56714286Y-76645295D01*
X56714286Y-76645295D02*
X56761905Y-76550057D01*
X56761905Y-76550057D02*
X56809524Y-76502438D01*
X56809524Y-76502438D02*
X56904762Y-76454819D01*
X56904762Y-76454819D02*
X57095238Y-76454819D01*
X57095238Y-76454819D02*
X57190476Y-76502438D01*
X57190476Y-76502438D02*
X57238095Y-76550057D01*
X57238095Y-76550057D02*
X57285714Y-76645295D01*
X57285714Y-76645295D02*
X57285714Y-76692914D01*
X57285714Y-76692914D02*
X57238095Y-76788152D01*
X57238095Y-76788152D02*
X57190476Y-76835771D01*
X57190476Y-76835771D02*
X57095238Y-76883390D01*
X57095238Y-76883390D02*
X56904762Y-76883390D01*
X56904762Y-76883390D02*
X56809524Y-76931009D01*
X56809524Y-76931009D02*
X56761905Y-76978628D01*
X56761905Y-76978628D02*
X56714286Y-77073866D01*
X56714286Y-77073866D02*
X56714286Y-77264342D01*
X56714286Y-77264342D02*
X56761905Y-77359580D01*
X56761905Y-77359580D02*
X56809524Y-77407200D01*
X56809524Y-77407200D02*
X56904762Y-77454819D01*
X56904762Y-77454819D02*
X57095238Y-77454819D01*
X57095238Y-77454819D02*
X57190476Y-77407200D01*
X57190476Y-77407200D02*
X57238095Y-77359580D01*
X57238095Y-77359580D02*
X57285714Y-77264342D01*
X57285714Y-77264342D02*
X57285714Y-77073866D01*
X57285714Y-77073866D02*
X57238095Y-76978628D01*
X57238095Y-76978628D02*
X57190476Y-76931009D01*
X57190476Y-76931009D02*
X57095238Y-76883390D01*
X76761904Y-22477200D02*
X76666666Y-22524819D01*
X76666666Y-22524819D02*
X76476190Y-22524819D01*
X76476190Y-22524819D02*
X76380952Y-22477200D01*
X76380952Y-22477200D02*
X76333333Y-22429580D01*
X76333333Y-22429580D02*
X76285714Y-22334342D01*
X76285714Y-22334342D02*
X76285714Y-22048628D01*
X76285714Y-22048628D02*
X76333333Y-21953390D01*
X76333333Y-21953390D02*
X76380952Y-21905771D01*
X76380952Y-21905771D02*
X76476190Y-21858152D01*
X76476190Y-21858152D02*
X76666666Y-21858152D01*
X76666666Y-21858152D02*
X76761904Y-21905771D01*
X77238095Y-22524819D02*
X77428571Y-22524819D01*
X77428571Y-22524819D02*
X77523809Y-22477200D01*
X77523809Y-22477200D02*
X77571428Y-22429580D01*
X77571428Y-22429580D02*
X77666666Y-22286723D01*
X77666666Y-22286723D02*
X77714285Y-22096247D01*
X77714285Y-22096247D02*
X77714285Y-21715295D01*
X77714285Y-21715295D02*
X77666666Y-21620057D01*
X77666666Y-21620057D02*
X77619047Y-21572438D01*
X77619047Y-21572438D02*
X77523809Y-21524819D01*
X77523809Y-21524819D02*
X77333333Y-21524819D01*
X77333333Y-21524819D02*
X77238095Y-21572438D01*
X77238095Y-21572438D02*
X77190476Y-21620057D01*
X77190476Y-21620057D02*
X77142857Y-21715295D01*
X77142857Y-21715295D02*
X77142857Y-21953390D01*
X77142857Y-21953390D02*
X77190476Y-22048628D01*
X77190476Y-22048628D02*
X77238095Y-22096247D01*
X77238095Y-22096247D02*
X77333333Y-22143866D01*
X77333333Y-22143866D02*
X77523809Y-22143866D01*
X77523809Y-22143866D02*
X77619047Y-22096247D01*
X77619047Y-22096247D02*
X77666666Y-22048628D01*
X77666666Y-22048628D02*
X77714285Y-21953390D01*
X87082142Y-41359580D02*
X87034523Y-41407200D01*
X87034523Y-41407200D02*
X86891666Y-41454819D01*
X86891666Y-41454819D02*
X86796428Y-41454819D01*
X86796428Y-41454819D02*
X86653571Y-41407200D01*
X86653571Y-41407200D02*
X86558333Y-41311961D01*
X86558333Y-41311961D02*
X86510714Y-41216723D01*
X86510714Y-41216723D02*
X86463095Y-41026247D01*
X86463095Y-41026247D02*
X86463095Y-40883390D01*
X86463095Y-40883390D02*
X86510714Y-40692914D01*
X86510714Y-40692914D02*
X86558333Y-40597676D01*
X86558333Y-40597676D02*
X86653571Y-40502438D01*
X86653571Y-40502438D02*
X86796428Y-40454819D01*
X86796428Y-40454819D02*
X86891666Y-40454819D01*
X86891666Y-40454819D02*
X87034523Y-40502438D01*
X87034523Y-40502438D02*
X87082142Y-40550057D01*
X88034523Y-41454819D02*
X87463095Y-41454819D01*
X87748809Y-41454819D02*
X87748809Y-40454819D01*
X87748809Y-40454819D02*
X87653571Y-40597676D01*
X87653571Y-40597676D02*
X87558333Y-40692914D01*
X87558333Y-40692914D02*
X87463095Y-40740533D01*
X88939285Y-40454819D02*
X88463095Y-40454819D01*
X88463095Y-40454819D02*
X88415476Y-40931009D01*
X88415476Y-40931009D02*
X88463095Y-40883390D01*
X88463095Y-40883390D02*
X88558333Y-40835771D01*
X88558333Y-40835771D02*
X88796428Y-40835771D01*
X88796428Y-40835771D02*
X88891666Y-40883390D01*
X88891666Y-40883390D02*
X88939285Y-40931009D01*
X88939285Y-40931009D02*
X88986904Y-41026247D01*
X88986904Y-41026247D02*
X88986904Y-41264342D01*
X88986904Y-41264342D02*
X88939285Y-41359580D01*
X88939285Y-41359580D02*
X88891666Y-41407200D01*
X88891666Y-41407200D02*
X88796428Y-41454819D01*
X88796428Y-41454819D02*
X88558333Y-41454819D01*
X88558333Y-41454819D02*
X88463095Y-41407200D01*
X88463095Y-41407200D02*
X88415476Y-41359580D01*
X28666666Y-85454819D02*
X28666666Y-86169104D01*
X28666666Y-86169104D02*
X28619047Y-86311961D01*
X28619047Y-86311961D02*
X28523809Y-86407200D01*
X28523809Y-86407200D02*
X28380952Y-86454819D01*
X28380952Y-86454819D02*
X28285714Y-86454819D01*
X29619047Y-85454819D02*
X29142857Y-85454819D01*
X29142857Y-85454819D02*
X29095238Y-85931009D01*
X29095238Y-85931009D02*
X29142857Y-85883390D01*
X29142857Y-85883390D02*
X29238095Y-85835771D01*
X29238095Y-85835771D02*
X29476190Y-85835771D01*
X29476190Y-85835771D02*
X29571428Y-85883390D01*
X29571428Y-85883390D02*
X29619047Y-85931009D01*
X29619047Y-85931009D02*
X29666666Y-86026247D01*
X29666666Y-86026247D02*
X29666666Y-86264342D01*
X29666666Y-86264342D02*
X29619047Y-86359580D01*
X29619047Y-86359580D02*
X29571428Y-86407200D01*
X29571428Y-86407200D02*
X29476190Y-86454819D01*
X29476190Y-86454819D02*
X29238095Y-86454819D01*
X29238095Y-86454819D02*
X29142857Y-86407200D01*
X29142857Y-86407200D02*
X29095238Y-86359580D01*
X37954819Y-47333333D02*
X38669104Y-47333333D01*
X38669104Y-47333333D02*
X38811961Y-47380952D01*
X38811961Y-47380952D02*
X38907200Y-47476190D01*
X38907200Y-47476190D02*
X38954819Y-47619047D01*
X38954819Y-47619047D02*
X38954819Y-47714285D01*
X37954819Y-46952380D02*
X37954819Y-46333333D01*
X37954819Y-46333333D02*
X38335771Y-46666666D01*
X38335771Y-46666666D02*
X38335771Y-46523809D01*
X38335771Y-46523809D02*
X38383390Y-46428571D01*
X38383390Y-46428571D02*
X38431009Y-46380952D01*
X38431009Y-46380952D02*
X38526247Y-46333333D01*
X38526247Y-46333333D02*
X38764342Y-46333333D01*
X38764342Y-46333333D02*
X38859580Y-46380952D01*
X38859580Y-46380952D02*
X38907200Y-46428571D01*
X38907200Y-46428571D02*
X38954819Y-46523809D01*
X38954819Y-46523809D02*
X38954819Y-46809523D01*
X38954819Y-46809523D02*
X38907200Y-46904761D01*
X38907200Y-46904761D02*
X38859580Y-46952380D01*
X75154580Y-36917857D02*
X75202200Y-36965476D01*
X75202200Y-36965476D02*
X75249819Y-37108333D01*
X75249819Y-37108333D02*
X75249819Y-37203571D01*
X75249819Y-37203571D02*
X75202200Y-37346428D01*
X75202200Y-37346428D02*
X75106961Y-37441666D01*
X75106961Y-37441666D02*
X75011723Y-37489285D01*
X75011723Y-37489285D02*
X74821247Y-37536904D01*
X74821247Y-37536904D02*
X74678390Y-37536904D01*
X74678390Y-37536904D02*
X74487914Y-37489285D01*
X74487914Y-37489285D02*
X74392676Y-37441666D01*
X74392676Y-37441666D02*
X74297438Y-37346428D01*
X74297438Y-37346428D02*
X74249819Y-37203571D01*
X74249819Y-37203571D02*
X74249819Y-37108333D01*
X74249819Y-37108333D02*
X74297438Y-36965476D01*
X74297438Y-36965476D02*
X74345057Y-36917857D01*
X75249819Y-35965476D02*
X75249819Y-36536904D01*
X75249819Y-36251190D02*
X74249819Y-36251190D01*
X74249819Y-36251190D02*
X74392676Y-36346428D01*
X74392676Y-36346428D02*
X74487914Y-36441666D01*
X74487914Y-36441666D02*
X74535533Y-36536904D01*
X74249819Y-35632142D02*
X74249819Y-34965476D01*
X74249819Y-34965476D02*
X75249819Y-35394047D01*
X56666666Y-62431009D02*
X56333333Y-62431009D01*
X56333333Y-62954819D02*
X56333333Y-61954819D01*
X56333333Y-61954819D02*
X56809523Y-61954819D01*
X57714285Y-62954819D02*
X57142857Y-62954819D01*
X57428571Y-62954819D02*
X57428571Y-61954819D01*
X57428571Y-61954819D02*
X57333333Y-62097676D01*
X57333333Y-62097676D02*
X57238095Y-62192914D01*
X57238095Y-62192914D02*
X57142857Y-62240533D01*
X49166666Y-79931009D02*
X48833333Y-79931009D01*
X48833333Y-80454819D02*
X48833333Y-79454819D01*
X48833333Y-79454819D02*
X49309523Y-79454819D01*
X49642857Y-79550057D02*
X49690476Y-79502438D01*
X49690476Y-79502438D02*
X49785714Y-79454819D01*
X49785714Y-79454819D02*
X50023809Y-79454819D01*
X50023809Y-79454819D02*
X50119047Y-79502438D01*
X50119047Y-79502438D02*
X50166666Y-79550057D01*
X50166666Y-79550057D02*
X50214285Y-79645295D01*
X50214285Y-79645295D02*
X50214285Y-79740533D01*
X50214285Y-79740533D02*
X50166666Y-79883390D01*
X50166666Y-79883390D02*
X49595238Y-80454819D01*
X49595238Y-80454819D02*
X50214285Y-80454819D01*
X56879166Y-45431009D02*
X56545833Y-45431009D01*
X56545833Y-45954819D02*
X56545833Y-44954819D01*
X56545833Y-44954819D02*
X57022023Y-44954819D01*
X57307738Y-44954819D02*
X57926785Y-44954819D01*
X57926785Y-44954819D02*
X57593452Y-45335771D01*
X57593452Y-45335771D02*
X57736309Y-45335771D01*
X57736309Y-45335771D02*
X57831547Y-45383390D01*
X57831547Y-45383390D02*
X57879166Y-45431009D01*
X57879166Y-45431009D02*
X57926785Y-45526247D01*
X57926785Y-45526247D02*
X57926785Y-45764342D01*
X57926785Y-45764342D02*
X57879166Y-45859580D01*
X57879166Y-45859580D02*
X57831547Y-45907200D01*
X57831547Y-45907200D02*
X57736309Y-45954819D01*
X57736309Y-45954819D02*
X57450595Y-45954819D01*
X57450595Y-45954819D02*
X57355357Y-45907200D01*
X57355357Y-45907200D02*
X57307738Y-45859580D01*
X48770833Y-27359580D02*
X48723214Y-27407200D01*
X48723214Y-27407200D02*
X48580357Y-27454819D01*
X48580357Y-27454819D02*
X48485119Y-27454819D01*
X48485119Y-27454819D02*
X48342262Y-27407200D01*
X48342262Y-27407200D02*
X48247024Y-27311961D01*
X48247024Y-27311961D02*
X48199405Y-27216723D01*
X48199405Y-27216723D02*
X48151786Y-27026247D01*
X48151786Y-27026247D02*
X48151786Y-26883390D01*
X48151786Y-26883390D02*
X48199405Y-26692914D01*
X48199405Y-26692914D02*
X48247024Y-26597676D01*
X48247024Y-26597676D02*
X48342262Y-26502438D01*
X48342262Y-26502438D02*
X48485119Y-26454819D01*
X48485119Y-26454819D02*
X48580357Y-26454819D01*
X48580357Y-26454819D02*
X48723214Y-26502438D01*
X48723214Y-26502438D02*
X48770833Y-26550057D01*
X49627976Y-26454819D02*
X49437500Y-26454819D01*
X49437500Y-26454819D02*
X49342262Y-26502438D01*
X49342262Y-26502438D02*
X49294643Y-26550057D01*
X49294643Y-26550057D02*
X49199405Y-26692914D01*
X49199405Y-26692914D02*
X49151786Y-26883390D01*
X49151786Y-26883390D02*
X49151786Y-27264342D01*
X49151786Y-27264342D02*
X49199405Y-27359580D01*
X49199405Y-27359580D02*
X49247024Y-27407200D01*
X49247024Y-27407200D02*
X49342262Y-27454819D01*
X49342262Y-27454819D02*
X49532738Y-27454819D01*
X49532738Y-27454819D02*
X49627976Y-27407200D01*
X49627976Y-27407200D02*
X49675595Y-27359580D01*
X49675595Y-27359580D02*
X49723214Y-27264342D01*
X49723214Y-27264342D02*
X49723214Y-27026247D01*
X49723214Y-27026247D02*
X49675595Y-26931009D01*
X49675595Y-26931009D02*
X49627976Y-26883390D01*
X49627976Y-26883390D02*
X49532738Y-26835771D01*
X49532738Y-26835771D02*
X49342262Y-26835771D01*
X49342262Y-26835771D02*
X49247024Y-26883390D01*
X49247024Y-26883390D02*
X49199405Y-26931009D01*
X49199405Y-26931009D02*
X49151786Y-27026247D01*
X49333333Y-66859580D02*
X49285714Y-66907200D01*
X49285714Y-66907200D02*
X49142857Y-66954819D01*
X49142857Y-66954819D02*
X49047619Y-66954819D01*
X49047619Y-66954819D02*
X48904762Y-66907200D01*
X48904762Y-66907200D02*
X48809524Y-66811961D01*
X48809524Y-66811961D02*
X48761905Y-66716723D01*
X48761905Y-66716723D02*
X48714286Y-66526247D01*
X48714286Y-66526247D02*
X48714286Y-66383390D01*
X48714286Y-66383390D02*
X48761905Y-66192914D01*
X48761905Y-66192914D02*
X48809524Y-66097676D01*
X48809524Y-66097676D02*
X48904762Y-66002438D01*
X48904762Y-66002438D02*
X49047619Y-65954819D01*
X49047619Y-65954819D02*
X49142857Y-65954819D01*
X49142857Y-65954819D02*
X49285714Y-66002438D01*
X49285714Y-66002438D02*
X49333333Y-66050057D01*
X50285714Y-66954819D02*
X49714286Y-66954819D01*
X50000000Y-66954819D02*
X50000000Y-65954819D01*
X50000000Y-65954819D02*
X49904762Y-66097676D01*
X49904762Y-66097676D02*
X49809524Y-66192914D01*
X49809524Y-66192914D02*
X49714286Y-66240533D01*
X56333333Y-60289580D02*
X56285714Y-60337200D01*
X56285714Y-60337200D02*
X56142857Y-60384819D01*
X56142857Y-60384819D02*
X56047619Y-60384819D01*
X56047619Y-60384819D02*
X55904762Y-60337200D01*
X55904762Y-60337200D02*
X55809524Y-60241961D01*
X55809524Y-60241961D02*
X55761905Y-60146723D01*
X55761905Y-60146723D02*
X55714286Y-59956247D01*
X55714286Y-59956247D02*
X55714286Y-59813390D01*
X55714286Y-59813390D02*
X55761905Y-59622914D01*
X55761905Y-59622914D02*
X55809524Y-59527676D01*
X55809524Y-59527676D02*
X55904762Y-59432438D01*
X55904762Y-59432438D02*
X56047619Y-59384819D01*
X56047619Y-59384819D02*
X56142857Y-59384819D01*
X56142857Y-59384819D02*
X56285714Y-59432438D01*
X56285714Y-59432438D02*
X56333333Y-59480057D01*
X57238095Y-59384819D02*
X56761905Y-59384819D01*
X56761905Y-59384819D02*
X56714286Y-59861009D01*
X56714286Y-59861009D02*
X56761905Y-59813390D01*
X56761905Y-59813390D02*
X56857143Y-59765771D01*
X56857143Y-59765771D02*
X57095238Y-59765771D01*
X57095238Y-59765771D02*
X57190476Y-59813390D01*
X57190476Y-59813390D02*
X57238095Y-59861009D01*
X57238095Y-59861009D02*
X57285714Y-59956247D01*
X57285714Y-59956247D02*
X57285714Y-60194342D01*
X57285714Y-60194342D02*
X57238095Y-60289580D01*
X57238095Y-60289580D02*
X57190476Y-60337200D01*
X57190476Y-60337200D02*
X57095238Y-60384819D01*
X57095238Y-60384819D02*
X56857143Y-60384819D01*
X56857143Y-60384819D02*
X56761905Y-60337200D01*
X56761905Y-60337200D02*
X56714286Y-60289580D01*
X56379166Y-28431009D02*
X56045833Y-28431009D01*
X56045833Y-28954819D02*
X56045833Y-27954819D01*
X56045833Y-27954819D02*
X56522023Y-27954819D01*
X57331547Y-28288152D02*
X57331547Y-28954819D01*
X57093452Y-27907200D02*
X56855357Y-28621485D01*
X56855357Y-28621485D02*
X57474404Y-28621485D01*
X84058333Y-37954819D02*
X83725000Y-37478628D01*
X83486905Y-37954819D02*
X83486905Y-36954819D01*
X83486905Y-36954819D02*
X83867857Y-36954819D01*
X83867857Y-36954819D02*
X83963095Y-37002438D01*
X83963095Y-37002438D02*
X84010714Y-37050057D01*
X84010714Y-37050057D02*
X84058333Y-37145295D01*
X84058333Y-37145295D02*
X84058333Y-37288152D01*
X84058333Y-37288152D02*
X84010714Y-37383390D01*
X84010714Y-37383390D02*
X83963095Y-37431009D01*
X83963095Y-37431009D02*
X83867857Y-37478628D01*
X83867857Y-37478628D02*
X83486905Y-37478628D01*
X84534524Y-37954819D02*
X84725000Y-37954819D01*
X84725000Y-37954819D02*
X84820238Y-37907200D01*
X84820238Y-37907200D02*
X84867857Y-37859580D01*
X84867857Y-37859580D02*
X84963095Y-37716723D01*
X84963095Y-37716723D02*
X85010714Y-37526247D01*
X85010714Y-37526247D02*
X85010714Y-37145295D01*
X85010714Y-37145295D02*
X84963095Y-37050057D01*
X84963095Y-37050057D02*
X84915476Y-37002438D01*
X84915476Y-37002438D02*
X84820238Y-36954819D01*
X84820238Y-36954819D02*
X84629762Y-36954819D01*
X84629762Y-36954819D02*
X84534524Y-37002438D01*
X84534524Y-37002438D02*
X84486905Y-37050057D01*
X84486905Y-37050057D02*
X84439286Y-37145295D01*
X84439286Y-37145295D02*
X84439286Y-37383390D01*
X84439286Y-37383390D02*
X84486905Y-37478628D01*
X84486905Y-37478628D02*
X84534524Y-37526247D01*
X84534524Y-37526247D02*
X84629762Y-37573866D01*
X84629762Y-37573866D02*
X84820238Y-37573866D01*
X84820238Y-37573866D02*
X84915476Y-37526247D01*
X84915476Y-37526247D02*
X84963095Y-37478628D01*
X84963095Y-37478628D02*
X85010714Y-37383390D01*
X93209580Y-55642857D02*
X93257200Y-55690476D01*
X93257200Y-55690476D02*
X93304819Y-55833333D01*
X93304819Y-55833333D02*
X93304819Y-55928571D01*
X93304819Y-55928571D02*
X93257200Y-56071428D01*
X93257200Y-56071428D02*
X93161961Y-56166666D01*
X93161961Y-56166666D02*
X93066723Y-56214285D01*
X93066723Y-56214285D02*
X92876247Y-56261904D01*
X92876247Y-56261904D02*
X92733390Y-56261904D01*
X92733390Y-56261904D02*
X92542914Y-56214285D01*
X92542914Y-56214285D02*
X92447676Y-56166666D01*
X92447676Y-56166666D02*
X92352438Y-56071428D01*
X92352438Y-56071428D02*
X92304819Y-55928571D01*
X92304819Y-55928571D02*
X92304819Y-55833333D01*
X92304819Y-55833333D02*
X92352438Y-55690476D01*
X92352438Y-55690476D02*
X92400057Y-55642857D01*
X93304819Y-54690476D02*
X93304819Y-55261904D01*
X93304819Y-54976190D02*
X92304819Y-54976190D01*
X92304819Y-54976190D02*
X92447676Y-55071428D01*
X92447676Y-55071428D02*
X92542914Y-55166666D01*
X92542914Y-55166666D02*
X92590533Y-55261904D01*
X92304819Y-53833333D02*
X92304819Y-54023809D01*
X92304819Y-54023809D02*
X92352438Y-54119047D01*
X92352438Y-54119047D02*
X92400057Y-54166666D01*
X92400057Y-54166666D02*
X92542914Y-54261904D01*
X92542914Y-54261904D02*
X92733390Y-54309523D01*
X92733390Y-54309523D02*
X93114342Y-54309523D01*
X93114342Y-54309523D02*
X93209580Y-54261904D01*
X93209580Y-54261904D02*
X93257200Y-54214285D01*
X93257200Y-54214285D02*
X93304819Y-54119047D01*
X93304819Y-54119047D02*
X93304819Y-53928571D01*
X93304819Y-53928571D02*
X93257200Y-53833333D01*
X93257200Y-53833333D02*
X93209580Y-53785714D01*
X93209580Y-53785714D02*
X93114342Y-53738095D01*
X93114342Y-53738095D02*
X92876247Y-53738095D01*
X92876247Y-53738095D02*
X92781009Y-53785714D01*
X92781009Y-53785714D02*
X92733390Y-53833333D01*
X92733390Y-53833333D02*
X92685771Y-53928571D01*
X92685771Y-53928571D02*
X92685771Y-54119047D01*
X92685771Y-54119047D02*
X92733390Y-54214285D01*
X92733390Y-54214285D02*
X92781009Y-54261904D01*
X92781009Y-54261904D02*
X92876247Y-54309523D01*
X85857142Y-60359580D02*
X85809523Y-60407200D01*
X85809523Y-60407200D02*
X85666666Y-60454819D01*
X85666666Y-60454819D02*
X85571428Y-60454819D01*
X85571428Y-60454819D02*
X85428571Y-60407200D01*
X85428571Y-60407200D02*
X85333333Y-60311961D01*
X85333333Y-60311961D02*
X85285714Y-60216723D01*
X85285714Y-60216723D02*
X85238095Y-60026247D01*
X85238095Y-60026247D02*
X85238095Y-59883390D01*
X85238095Y-59883390D02*
X85285714Y-59692914D01*
X85285714Y-59692914D02*
X85333333Y-59597676D01*
X85333333Y-59597676D02*
X85428571Y-59502438D01*
X85428571Y-59502438D02*
X85571428Y-59454819D01*
X85571428Y-59454819D02*
X85666666Y-59454819D01*
X85666666Y-59454819D02*
X85809523Y-59502438D01*
X85809523Y-59502438D02*
X85857142Y-59550057D01*
X86809523Y-60454819D02*
X86238095Y-60454819D01*
X86523809Y-60454819D02*
X86523809Y-59454819D01*
X86523809Y-59454819D02*
X86428571Y-59597676D01*
X86428571Y-59597676D02*
X86333333Y-59692914D01*
X86333333Y-59692914D02*
X86238095Y-59740533D01*
X87666666Y-59788152D02*
X87666666Y-60454819D01*
X87428571Y-59407200D02*
X87190476Y-60121485D01*
X87190476Y-60121485D02*
X87809523Y-60121485D01*
X86357142Y-25789580D02*
X86309523Y-25837200D01*
X86309523Y-25837200D02*
X86166666Y-25884819D01*
X86166666Y-25884819D02*
X86071428Y-25884819D01*
X86071428Y-25884819D02*
X85928571Y-25837200D01*
X85928571Y-25837200D02*
X85833333Y-25741961D01*
X85833333Y-25741961D02*
X85785714Y-25646723D01*
X85785714Y-25646723D02*
X85738095Y-25456247D01*
X85738095Y-25456247D02*
X85738095Y-25313390D01*
X85738095Y-25313390D02*
X85785714Y-25122914D01*
X85785714Y-25122914D02*
X85833333Y-25027676D01*
X85833333Y-25027676D02*
X85928571Y-24932438D01*
X85928571Y-24932438D02*
X86071428Y-24884819D01*
X86071428Y-24884819D02*
X86166666Y-24884819D01*
X86166666Y-24884819D02*
X86309523Y-24932438D01*
X86309523Y-24932438D02*
X86357142Y-24980057D01*
X87309523Y-25884819D02*
X86738095Y-25884819D01*
X87023809Y-25884819D02*
X87023809Y-24884819D01*
X87023809Y-24884819D02*
X86928571Y-25027676D01*
X86928571Y-25027676D02*
X86833333Y-25122914D01*
X86833333Y-25122914D02*
X86738095Y-25170533D01*
X87690476Y-24980057D02*
X87738095Y-24932438D01*
X87738095Y-24932438D02*
X87833333Y-24884819D01*
X87833333Y-24884819D02*
X88071428Y-24884819D01*
X88071428Y-24884819D02*
X88166666Y-24932438D01*
X88166666Y-24932438D02*
X88214285Y-24980057D01*
X88214285Y-24980057D02*
X88261904Y-25075295D01*
X88261904Y-25075295D02*
X88261904Y-25170533D01*
X88261904Y-25170533D02*
X88214285Y-25313390D01*
X88214285Y-25313390D02*
X87642857Y-25884819D01*
X87642857Y-25884819D02*
X88261904Y-25884819D01*
X49045833Y-44289580D02*
X48998214Y-44337200D01*
X48998214Y-44337200D02*
X48855357Y-44384819D01*
X48855357Y-44384819D02*
X48760119Y-44384819D01*
X48760119Y-44384819D02*
X48617262Y-44337200D01*
X48617262Y-44337200D02*
X48522024Y-44241961D01*
X48522024Y-44241961D02*
X48474405Y-44146723D01*
X48474405Y-44146723D02*
X48426786Y-43956247D01*
X48426786Y-43956247D02*
X48426786Y-43813390D01*
X48426786Y-43813390D02*
X48474405Y-43622914D01*
X48474405Y-43622914D02*
X48522024Y-43527676D01*
X48522024Y-43527676D02*
X48617262Y-43432438D01*
X48617262Y-43432438D02*
X48760119Y-43384819D01*
X48760119Y-43384819D02*
X48855357Y-43384819D01*
X48855357Y-43384819D02*
X48998214Y-43432438D01*
X48998214Y-43432438D02*
X49045833Y-43480057D01*
X49379167Y-43384819D02*
X50045833Y-43384819D01*
X50045833Y-43384819D02*
X49617262Y-44384819D01*
X81523809Y-21478628D02*
X81523809Y-21954819D01*
X81190476Y-20954819D02*
X81523809Y-21478628D01*
X81523809Y-21478628D02*
X81857142Y-20954819D01*
X82714285Y-21954819D02*
X82142857Y-21954819D01*
X82428571Y-21954819D02*
X82428571Y-20954819D01*
X82428571Y-20954819D02*
X82333333Y-21097676D01*
X82333333Y-21097676D02*
X82238095Y-21192914D01*
X82238095Y-21192914D02*
X82142857Y-21240533D01*
X94380952Y-38312319D02*
X93904762Y-38312319D01*
X93904762Y-38312319D02*
X93904762Y-37312319D01*
X94714286Y-37788509D02*
X95047619Y-37788509D01*
X95190476Y-38312319D02*
X94714286Y-38312319D01*
X94714286Y-38312319D02*
X94714286Y-37312319D01*
X94714286Y-37312319D02*
X95190476Y-37312319D01*
X95619048Y-38312319D02*
X95619048Y-37312319D01*
X95619048Y-37312319D02*
X95857143Y-37312319D01*
X95857143Y-37312319D02*
X96000000Y-37359938D01*
X96000000Y-37359938D02*
X96095238Y-37455176D01*
X96095238Y-37455176D02*
X96142857Y-37550414D01*
X96142857Y-37550414D02*
X96190476Y-37740890D01*
X96190476Y-37740890D02*
X96190476Y-37883747D01*
X96190476Y-37883747D02*
X96142857Y-38074223D01*
X96142857Y-38074223D02*
X96095238Y-38169461D01*
X96095238Y-38169461D02*
X96000000Y-38264700D01*
X96000000Y-38264700D02*
X95857143Y-38312319D01*
X95857143Y-38312319D02*
X95619048Y-38312319D01*
X97142857Y-38312319D02*
X96571429Y-38312319D01*
X96857143Y-38312319D02*
X96857143Y-37312319D01*
X96857143Y-37312319D02*
X96761905Y-37455176D01*
X96761905Y-37455176D02*
X96666667Y-37550414D01*
X96666667Y-37550414D02*
X96571429Y-37598033D01*
X94357142Y-22929580D02*
X94309523Y-22977200D01*
X94309523Y-22977200D02*
X94166666Y-23024819D01*
X94166666Y-23024819D02*
X94071428Y-23024819D01*
X94071428Y-23024819D02*
X93928571Y-22977200D01*
X93928571Y-22977200D02*
X93833333Y-22881961D01*
X93833333Y-22881961D02*
X93785714Y-22786723D01*
X93785714Y-22786723D02*
X93738095Y-22596247D01*
X93738095Y-22596247D02*
X93738095Y-22453390D01*
X93738095Y-22453390D02*
X93785714Y-22262914D01*
X93785714Y-22262914D02*
X93833333Y-22167676D01*
X93833333Y-22167676D02*
X93928571Y-22072438D01*
X93928571Y-22072438D02*
X94071428Y-22024819D01*
X94071428Y-22024819D02*
X94166666Y-22024819D01*
X94166666Y-22024819D02*
X94309523Y-22072438D01*
X94309523Y-22072438D02*
X94357142Y-22120057D01*
X95309523Y-23024819D02*
X94738095Y-23024819D01*
X95023809Y-23024819D02*
X95023809Y-22024819D01*
X95023809Y-22024819D02*
X94928571Y-22167676D01*
X94928571Y-22167676D02*
X94833333Y-22262914D01*
X94833333Y-22262914D02*
X94738095Y-22310533D01*
X95928571Y-22024819D02*
X96023809Y-22024819D01*
X96023809Y-22024819D02*
X96119047Y-22072438D01*
X96119047Y-22072438D02*
X96166666Y-22120057D01*
X96166666Y-22120057D02*
X96214285Y-22215295D01*
X96214285Y-22215295D02*
X96261904Y-22405771D01*
X96261904Y-22405771D02*
X96261904Y-22643866D01*
X96261904Y-22643866D02*
X96214285Y-22834342D01*
X96214285Y-22834342D02*
X96166666Y-22929580D01*
X96166666Y-22929580D02*
X96119047Y-22977200D01*
X96119047Y-22977200D02*
X96023809Y-23024819D01*
X96023809Y-23024819D02*
X95928571Y-23024819D01*
X95928571Y-23024819D02*
X95833333Y-22977200D01*
X95833333Y-22977200D02*
X95785714Y-22929580D01*
X95785714Y-22929580D02*
X95738095Y-22834342D01*
X95738095Y-22834342D02*
X95690476Y-22643866D01*
X95690476Y-22643866D02*
X95690476Y-22405771D01*
X95690476Y-22405771D02*
X95738095Y-22215295D01*
X95738095Y-22215295D02*
X95785714Y-22120057D01*
X95785714Y-22120057D02*
X95833333Y-22072438D01*
X95833333Y-22072438D02*
X95928571Y-22024819D01*
X90357142Y-25789580D02*
X90309523Y-25837200D01*
X90309523Y-25837200D02*
X90166666Y-25884819D01*
X90166666Y-25884819D02*
X90071428Y-25884819D01*
X90071428Y-25884819D02*
X89928571Y-25837200D01*
X89928571Y-25837200D02*
X89833333Y-25741961D01*
X89833333Y-25741961D02*
X89785714Y-25646723D01*
X89785714Y-25646723D02*
X89738095Y-25456247D01*
X89738095Y-25456247D02*
X89738095Y-25313390D01*
X89738095Y-25313390D02*
X89785714Y-25122914D01*
X89785714Y-25122914D02*
X89833333Y-25027676D01*
X89833333Y-25027676D02*
X89928571Y-24932438D01*
X89928571Y-24932438D02*
X90071428Y-24884819D01*
X90071428Y-24884819D02*
X90166666Y-24884819D01*
X90166666Y-24884819D02*
X90309523Y-24932438D01*
X90309523Y-24932438D02*
X90357142Y-24980057D01*
X91309523Y-25884819D02*
X90738095Y-25884819D01*
X91023809Y-25884819D02*
X91023809Y-24884819D01*
X91023809Y-24884819D02*
X90928571Y-25027676D01*
X90928571Y-25027676D02*
X90833333Y-25122914D01*
X90833333Y-25122914D02*
X90738095Y-25170533D01*
X91642857Y-24884819D02*
X92261904Y-24884819D01*
X92261904Y-24884819D02*
X91928571Y-25265771D01*
X91928571Y-25265771D02*
X92071428Y-25265771D01*
X92071428Y-25265771D02*
X92166666Y-25313390D01*
X92166666Y-25313390D02*
X92214285Y-25361009D01*
X92214285Y-25361009D02*
X92261904Y-25456247D01*
X92261904Y-25456247D02*
X92261904Y-25694342D01*
X92261904Y-25694342D02*
X92214285Y-25789580D01*
X92214285Y-25789580D02*
X92166666Y-25837200D01*
X92166666Y-25837200D02*
X92071428Y-25884819D01*
X92071428Y-25884819D02*
X91785714Y-25884819D01*
X91785714Y-25884819D02*
X91690476Y-25837200D01*
X91690476Y-25837200D02*
X91642857Y-25789580D01*
X73857142Y-57429580D02*
X73809523Y-57477200D01*
X73809523Y-57477200D02*
X73666666Y-57524819D01*
X73666666Y-57524819D02*
X73571428Y-57524819D01*
X73571428Y-57524819D02*
X73428571Y-57477200D01*
X73428571Y-57477200D02*
X73333333Y-57381961D01*
X73333333Y-57381961D02*
X73285714Y-57286723D01*
X73285714Y-57286723D02*
X73238095Y-57096247D01*
X73238095Y-57096247D02*
X73238095Y-56953390D01*
X73238095Y-56953390D02*
X73285714Y-56762914D01*
X73285714Y-56762914D02*
X73333333Y-56667676D01*
X73333333Y-56667676D02*
X73428571Y-56572438D01*
X73428571Y-56572438D02*
X73571428Y-56524819D01*
X73571428Y-56524819D02*
X73666666Y-56524819D01*
X73666666Y-56524819D02*
X73809523Y-56572438D01*
X73809523Y-56572438D02*
X73857142Y-56620057D01*
X74809523Y-57524819D02*
X74238095Y-57524819D01*
X74523809Y-57524819D02*
X74523809Y-56524819D01*
X74523809Y-56524819D02*
X74428571Y-56667676D01*
X74428571Y-56667676D02*
X74333333Y-56762914D01*
X74333333Y-56762914D02*
X74238095Y-56810533D01*
X75380952Y-56953390D02*
X75285714Y-56905771D01*
X75285714Y-56905771D02*
X75238095Y-56858152D01*
X75238095Y-56858152D02*
X75190476Y-56762914D01*
X75190476Y-56762914D02*
X75190476Y-56715295D01*
X75190476Y-56715295D02*
X75238095Y-56620057D01*
X75238095Y-56620057D02*
X75285714Y-56572438D01*
X75285714Y-56572438D02*
X75380952Y-56524819D01*
X75380952Y-56524819D02*
X75571428Y-56524819D01*
X75571428Y-56524819D02*
X75666666Y-56572438D01*
X75666666Y-56572438D02*
X75714285Y-56620057D01*
X75714285Y-56620057D02*
X75761904Y-56715295D01*
X75761904Y-56715295D02*
X75761904Y-56762914D01*
X75761904Y-56762914D02*
X75714285Y-56858152D01*
X75714285Y-56858152D02*
X75666666Y-56905771D01*
X75666666Y-56905771D02*
X75571428Y-56953390D01*
X75571428Y-56953390D02*
X75380952Y-56953390D01*
X75380952Y-56953390D02*
X75285714Y-57001009D01*
X75285714Y-57001009D02*
X75238095Y-57048628D01*
X75238095Y-57048628D02*
X75190476Y-57143866D01*
X75190476Y-57143866D02*
X75190476Y-57334342D01*
X75190476Y-57334342D02*
X75238095Y-57429580D01*
X75238095Y-57429580D02*
X75285714Y-57477200D01*
X75285714Y-57477200D02*
X75380952Y-57524819D01*
X75380952Y-57524819D02*
X75571428Y-57524819D01*
X75571428Y-57524819D02*
X75666666Y-57477200D01*
X75666666Y-57477200D02*
X75714285Y-57429580D01*
X75714285Y-57429580D02*
X75761904Y-57334342D01*
X75761904Y-57334342D02*
X75761904Y-57143866D01*
X75761904Y-57143866D02*
X75714285Y-57048628D01*
X75714285Y-57048628D02*
X75666666Y-57001009D01*
X75666666Y-57001009D02*
X75571428Y-56953390D01*
X98857142Y-22679580D02*
X98809523Y-22727200D01*
X98809523Y-22727200D02*
X98666666Y-22774819D01*
X98666666Y-22774819D02*
X98571428Y-22774819D01*
X98571428Y-22774819D02*
X98428571Y-22727200D01*
X98428571Y-22727200D02*
X98333333Y-22631961D01*
X98333333Y-22631961D02*
X98285714Y-22536723D01*
X98285714Y-22536723D02*
X98238095Y-22346247D01*
X98238095Y-22346247D02*
X98238095Y-22203390D01*
X98238095Y-22203390D02*
X98285714Y-22012914D01*
X98285714Y-22012914D02*
X98333333Y-21917676D01*
X98333333Y-21917676D02*
X98428571Y-21822438D01*
X98428571Y-21822438D02*
X98571428Y-21774819D01*
X98571428Y-21774819D02*
X98666666Y-21774819D01*
X98666666Y-21774819D02*
X98809523Y-21822438D01*
X98809523Y-21822438D02*
X98857142Y-21870057D01*
X99809523Y-22774819D02*
X99238095Y-22774819D01*
X99523809Y-22774819D02*
X99523809Y-21774819D01*
X99523809Y-21774819D02*
X99428571Y-21917676D01*
X99428571Y-21917676D02*
X99333333Y-22012914D01*
X99333333Y-22012914D02*
X99238095Y-22060533D01*
X100761904Y-22774819D02*
X100190476Y-22774819D01*
X100476190Y-22774819D02*
X100476190Y-21774819D01*
X100476190Y-21774819D02*
X100380952Y-21917676D01*
X100380952Y-21917676D02*
X100285714Y-22012914D01*
X100285714Y-22012914D02*
X100190476Y-22060533D01*
X92333333Y-41454819D02*
X92000000Y-40978628D01*
X91761905Y-41454819D02*
X91761905Y-40454819D01*
X91761905Y-40454819D02*
X92142857Y-40454819D01*
X92142857Y-40454819D02*
X92238095Y-40502438D01*
X92238095Y-40502438D02*
X92285714Y-40550057D01*
X92285714Y-40550057D02*
X92333333Y-40645295D01*
X92333333Y-40645295D02*
X92333333Y-40788152D01*
X92333333Y-40788152D02*
X92285714Y-40883390D01*
X92285714Y-40883390D02*
X92238095Y-40931009D01*
X92238095Y-40931009D02*
X92142857Y-40978628D01*
X92142857Y-40978628D02*
X91761905Y-40978628D01*
X93238095Y-40454819D02*
X92761905Y-40454819D01*
X92761905Y-40454819D02*
X92714286Y-40931009D01*
X92714286Y-40931009D02*
X92761905Y-40883390D01*
X92761905Y-40883390D02*
X92857143Y-40835771D01*
X92857143Y-40835771D02*
X93095238Y-40835771D01*
X93095238Y-40835771D02*
X93190476Y-40883390D01*
X93190476Y-40883390D02*
X93238095Y-40931009D01*
X93238095Y-40931009D02*
X93285714Y-41026247D01*
X93285714Y-41026247D02*
X93285714Y-41264342D01*
X93285714Y-41264342D02*
X93238095Y-41359580D01*
X93238095Y-41359580D02*
X93190476Y-41407200D01*
X93190476Y-41407200D02*
X93095238Y-41454819D01*
X93095238Y-41454819D02*
X92857143Y-41454819D01*
X92857143Y-41454819D02*
X92761905Y-41407200D01*
X92761905Y-41407200D02*
X92714286Y-41359580D01*
X99454819Y-83633333D02*
X100169104Y-83633333D01*
X100169104Y-83633333D02*
X100311961Y-83680952D01*
X100311961Y-83680952D02*
X100407200Y-83776190D01*
X100407200Y-83776190D02*
X100454819Y-83919047D01*
X100454819Y-83919047D02*
X100454819Y-84014285D01*
X100454819Y-82633333D02*
X100454819Y-83204761D01*
X100454819Y-82919047D02*
X99454819Y-82919047D01*
X99454819Y-82919047D02*
X99597676Y-83014285D01*
X99597676Y-83014285D02*
X99692914Y-83109523D01*
X99692914Y-83109523D02*
X99740533Y-83204761D01*
X79582142Y-40859580D02*
X79534523Y-40907200D01*
X79534523Y-40907200D02*
X79391666Y-40954819D01*
X79391666Y-40954819D02*
X79296428Y-40954819D01*
X79296428Y-40954819D02*
X79153571Y-40907200D01*
X79153571Y-40907200D02*
X79058333Y-40811961D01*
X79058333Y-40811961D02*
X79010714Y-40716723D01*
X79010714Y-40716723D02*
X78963095Y-40526247D01*
X78963095Y-40526247D02*
X78963095Y-40383390D01*
X78963095Y-40383390D02*
X79010714Y-40192914D01*
X79010714Y-40192914D02*
X79058333Y-40097676D01*
X79058333Y-40097676D02*
X79153571Y-40002438D01*
X79153571Y-40002438D02*
X79296428Y-39954819D01*
X79296428Y-39954819D02*
X79391666Y-39954819D01*
X79391666Y-39954819D02*
X79534523Y-40002438D01*
X79534523Y-40002438D02*
X79582142Y-40050057D01*
X79963095Y-40050057D02*
X80010714Y-40002438D01*
X80010714Y-40002438D02*
X80105952Y-39954819D01*
X80105952Y-39954819D02*
X80344047Y-39954819D01*
X80344047Y-39954819D02*
X80439285Y-40002438D01*
X80439285Y-40002438D02*
X80486904Y-40050057D01*
X80486904Y-40050057D02*
X80534523Y-40145295D01*
X80534523Y-40145295D02*
X80534523Y-40240533D01*
X80534523Y-40240533D02*
X80486904Y-40383390D01*
X80486904Y-40383390D02*
X79915476Y-40954819D01*
X79915476Y-40954819D02*
X80534523Y-40954819D01*
X80915476Y-40050057D02*
X80963095Y-40002438D01*
X80963095Y-40002438D02*
X81058333Y-39954819D01*
X81058333Y-39954819D02*
X81296428Y-39954819D01*
X81296428Y-39954819D02*
X81391666Y-40002438D01*
X81391666Y-40002438D02*
X81439285Y-40050057D01*
X81439285Y-40050057D02*
X81486904Y-40145295D01*
X81486904Y-40145295D02*
X81486904Y-40240533D01*
X81486904Y-40240533D02*
X81439285Y-40383390D01*
X81439285Y-40383390D02*
X80867857Y-40954819D01*
X80867857Y-40954819D02*
X81486904Y-40954819D01*
X97833333Y-41524819D02*
X97500000Y-41048628D01*
X97261905Y-41524819D02*
X97261905Y-40524819D01*
X97261905Y-40524819D02*
X97642857Y-40524819D01*
X97642857Y-40524819D02*
X97738095Y-40572438D01*
X97738095Y-40572438D02*
X97785714Y-40620057D01*
X97785714Y-40620057D02*
X97833333Y-40715295D01*
X97833333Y-40715295D02*
X97833333Y-40858152D01*
X97833333Y-40858152D02*
X97785714Y-40953390D01*
X97785714Y-40953390D02*
X97738095Y-41001009D01*
X97738095Y-41001009D02*
X97642857Y-41048628D01*
X97642857Y-41048628D02*
X97261905Y-41048628D01*
X98690476Y-40524819D02*
X98500000Y-40524819D01*
X98500000Y-40524819D02*
X98404762Y-40572438D01*
X98404762Y-40572438D02*
X98357143Y-40620057D01*
X98357143Y-40620057D02*
X98261905Y-40762914D01*
X98261905Y-40762914D02*
X98214286Y-40953390D01*
X98214286Y-40953390D02*
X98214286Y-41334342D01*
X98214286Y-41334342D02*
X98261905Y-41429580D01*
X98261905Y-41429580D02*
X98309524Y-41477200D01*
X98309524Y-41477200D02*
X98404762Y-41524819D01*
X98404762Y-41524819D02*
X98595238Y-41524819D01*
X98595238Y-41524819D02*
X98690476Y-41477200D01*
X98690476Y-41477200D02*
X98738095Y-41429580D01*
X98738095Y-41429580D02*
X98785714Y-41334342D01*
X98785714Y-41334342D02*
X98785714Y-41096247D01*
X98785714Y-41096247D02*
X98738095Y-41001009D01*
X98738095Y-41001009D02*
X98690476Y-40953390D01*
X98690476Y-40953390D02*
X98595238Y-40905771D01*
X98595238Y-40905771D02*
X98404762Y-40905771D01*
X98404762Y-40905771D02*
X98309524Y-40953390D01*
X98309524Y-40953390D02*
X98261905Y-41001009D01*
X98261905Y-41001009D02*
X98214286Y-41096247D01*
X81857142Y-57359580D02*
X81809523Y-57407200D01*
X81809523Y-57407200D02*
X81666666Y-57454819D01*
X81666666Y-57454819D02*
X81571428Y-57454819D01*
X81571428Y-57454819D02*
X81428571Y-57407200D01*
X81428571Y-57407200D02*
X81333333Y-57311961D01*
X81333333Y-57311961D02*
X81285714Y-57216723D01*
X81285714Y-57216723D02*
X81238095Y-57026247D01*
X81238095Y-57026247D02*
X81238095Y-56883390D01*
X81238095Y-56883390D02*
X81285714Y-56692914D01*
X81285714Y-56692914D02*
X81333333Y-56597676D01*
X81333333Y-56597676D02*
X81428571Y-56502438D01*
X81428571Y-56502438D02*
X81571428Y-56454819D01*
X81571428Y-56454819D02*
X81666666Y-56454819D01*
X81666666Y-56454819D02*
X81809523Y-56502438D01*
X81809523Y-56502438D02*
X81857142Y-56550057D01*
X82238095Y-56550057D02*
X82285714Y-56502438D01*
X82285714Y-56502438D02*
X82380952Y-56454819D01*
X82380952Y-56454819D02*
X82619047Y-56454819D01*
X82619047Y-56454819D02*
X82714285Y-56502438D01*
X82714285Y-56502438D02*
X82761904Y-56550057D01*
X82761904Y-56550057D02*
X82809523Y-56645295D01*
X82809523Y-56645295D02*
X82809523Y-56740533D01*
X82809523Y-56740533D02*
X82761904Y-56883390D01*
X82761904Y-56883390D02*
X82190476Y-57454819D01*
X82190476Y-57454819D02*
X82809523Y-57454819D01*
X83428571Y-56454819D02*
X83523809Y-56454819D01*
X83523809Y-56454819D02*
X83619047Y-56502438D01*
X83619047Y-56502438D02*
X83666666Y-56550057D01*
X83666666Y-56550057D02*
X83714285Y-56645295D01*
X83714285Y-56645295D02*
X83761904Y-56835771D01*
X83761904Y-56835771D02*
X83761904Y-57073866D01*
X83761904Y-57073866D02*
X83714285Y-57264342D01*
X83714285Y-57264342D02*
X83666666Y-57359580D01*
X83666666Y-57359580D02*
X83619047Y-57407200D01*
X83619047Y-57407200D02*
X83523809Y-57454819D01*
X83523809Y-57454819D02*
X83428571Y-57454819D01*
X83428571Y-57454819D02*
X83333333Y-57407200D01*
X83333333Y-57407200D02*
X83285714Y-57359580D01*
X83285714Y-57359580D02*
X83238095Y-57264342D01*
X83238095Y-57264342D02*
X83190476Y-57073866D01*
X83190476Y-57073866D02*
X83190476Y-56835771D01*
X83190476Y-56835771D02*
X83238095Y-56645295D01*
X83238095Y-56645295D02*
X83285714Y-56550057D01*
X83285714Y-56550057D02*
X83333333Y-56502438D01*
X83333333Y-56502438D02*
X83428571Y-56454819D01*
X105716666Y-48247319D02*
X105716666Y-48961604D01*
X105716666Y-48961604D02*
X105669047Y-49104461D01*
X105669047Y-49104461D02*
X105573809Y-49199700D01*
X105573809Y-49199700D02*
X105430952Y-49247319D01*
X105430952Y-49247319D02*
X105335714Y-49247319D01*
X106621428Y-48247319D02*
X106430952Y-48247319D01*
X106430952Y-48247319D02*
X106335714Y-48294938D01*
X106335714Y-48294938D02*
X106288095Y-48342557D01*
X106288095Y-48342557D02*
X106192857Y-48485414D01*
X106192857Y-48485414D02*
X106145238Y-48675890D01*
X106145238Y-48675890D02*
X106145238Y-49056842D01*
X106145238Y-49056842D02*
X106192857Y-49152080D01*
X106192857Y-49152080D02*
X106240476Y-49199700D01*
X106240476Y-49199700D02*
X106335714Y-49247319D01*
X106335714Y-49247319D02*
X106526190Y-49247319D01*
X106526190Y-49247319D02*
X106621428Y-49199700D01*
X106621428Y-49199700D02*
X106669047Y-49152080D01*
X106669047Y-49152080D02*
X106716666Y-49056842D01*
X106716666Y-49056842D02*
X106716666Y-48818747D01*
X106716666Y-48818747D02*
X106669047Y-48723509D01*
X106669047Y-48723509D02*
X106621428Y-48675890D01*
X106621428Y-48675890D02*
X106526190Y-48628271D01*
X106526190Y-48628271D02*
X106335714Y-48628271D01*
X106335714Y-48628271D02*
X106240476Y-48675890D01*
X106240476Y-48675890D02*
X106192857Y-48723509D01*
X106192857Y-48723509D02*
X106145238Y-48818747D01*
X71833333Y-22514819D02*
X71500000Y-22038628D01*
X71261905Y-22514819D02*
X71261905Y-21514819D01*
X71261905Y-21514819D02*
X71642857Y-21514819D01*
X71642857Y-21514819D02*
X71738095Y-21562438D01*
X71738095Y-21562438D02*
X71785714Y-21610057D01*
X71785714Y-21610057D02*
X71833333Y-21705295D01*
X71833333Y-21705295D02*
X71833333Y-21848152D01*
X71833333Y-21848152D02*
X71785714Y-21943390D01*
X71785714Y-21943390D02*
X71738095Y-21991009D01*
X71738095Y-21991009D02*
X71642857Y-22038628D01*
X71642857Y-22038628D02*
X71261905Y-22038628D01*
X72166667Y-21514819D02*
X72785714Y-21514819D01*
X72785714Y-21514819D02*
X72452381Y-21895771D01*
X72452381Y-21895771D02*
X72595238Y-21895771D01*
X72595238Y-21895771D02*
X72690476Y-21943390D01*
X72690476Y-21943390D02*
X72738095Y-21991009D01*
X72738095Y-21991009D02*
X72785714Y-22086247D01*
X72785714Y-22086247D02*
X72785714Y-22324342D01*
X72785714Y-22324342D02*
X72738095Y-22419580D01*
X72738095Y-22419580D02*
X72690476Y-22467200D01*
X72690476Y-22467200D02*
X72595238Y-22514819D01*
X72595238Y-22514819D02*
X72309524Y-22514819D01*
X72309524Y-22514819D02*
X72214286Y-22467200D01*
X72214286Y-22467200D02*
X72166667Y-22419580D01*
X103666666Y-25761009D02*
X103333333Y-25761009D01*
X103333333Y-26284819D02*
X103333333Y-25284819D01*
X103333333Y-25284819D02*
X103809523Y-25284819D01*
X104666666Y-25284819D02*
X104190476Y-25284819D01*
X104190476Y-25284819D02*
X104142857Y-25761009D01*
X104142857Y-25761009D02*
X104190476Y-25713390D01*
X104190476Y-25713390D02*
X104285714Y-25665771D01*
X104285714Y-25665771D02*
X104523809Y-25665771D01*
X104523809Y-25665771D02*
X104619047Y-25713390D01*
X104619047Y-25713390D02*
X104666666Y-25761009D01*
X104666666Y-25761009D02*
X104714285Y-25856247D01*
X104714285Y-25856247D02*
X104714285Y-26094342D01*
X104714285Y-26094342D02*
X104666666Y-26189580D01*
X104666666Y-26189580D02*
X104619047Y-26237200D01*
X104619047Y-26237200D02*
X104523809Y-26284819D01*
X104523809Y-26284819D02*
X104285714Y-26284819D01*
X104285714Y-26284819D02*
X104190476Y-26237200D01*
X104190476Y-26237200D02*
X104142857Y-26189580D01*
X48833333Y-57454819D02*
X48357143Y-57454819D01*
X48357143Y-57454819D02*
X48357143Y-56454819D01*
X49119048Y-56550057D02*
X49166667Y-56502438D01*
X49166667Y-56502438D02*
X49261905Y-56454819D01*
X49261905Y-56454819D02*
X49500000Y-56454819D01*
X49500000Y-56454819D02*
X49595238Y-56502438D01*
X49595238Y-56502438D02*
X49642857Y-56550057D01*
X49642857Y-56550057D02*
X49690476Y-56645295D01*
X49690476Y-56645295D02*
X49690476Y-56740533D01*
X49690476Y-56740533D02*
X49642857Y-56883390D01*
X49642857Y-56883390D02*
X49071429Y-57454819D01*
X49071429Y-57454819D02*
X49690476Y-57454819D01*
X98333333Y-30524819D02*
X98000000Y-30048628D01*
X97761905Y-30524819D02*
X97761905Y-29524819D01*
X97761905Y-29524819D02*
X98142857Y-29524819D01*
X98142857Y-29524819D02*
X98238095Y-29572438D01*
X98238095Y-29572438D02*
X98285714Y-29620057D01*
X98285714Y-29620057D02*
X98333333Y-29715295D01*
X98333333Y-29715295D02*
X98333333Y-29858152D01*
X98333333Y-29858152D02*
X98285714Y-29953390D01*
X98285714Y-29953390D02*
X98238095Y-30001009D01*
X98238095Y-30001009D02*
X98142857Y-30048628D01*
X98142857Y-30048628D02*
X97761905Y-30048628D01*
X98666667Y-29524819D02*
X99333333Y-29524819D01*
X99333333Y-29524819D02*
X98904762Y-30524819D01*
X45119047Y-76931009D02*
X44785714Y-76931009D01*
X44785714Y-77454819D02*
X44785714Y-76454819D01*
X44785714Y-76454819D02*
X45261904Y-76454819D01*
X45976190Y-76931009D02*
X46119047Y-76978628D01*
X46119047Y-76978628D02*
X46166666Y-77026247D01*
X46166666Y-77026247D02*
X46214285Y-77121485D01*
X46214285Y-77121485D02*
X46214285Y-77264342D01*
X46214285Y-77264342D02*
X46166666Y-77359580D01*
X46166666Y-77359580D02*
X46119047Y-77407200D01*
X46119047Y-77407200D02*
X46023809Y-77454819D01*
X46023809Y-77454819D02*
X45642857Y-77454819D01*
X45642857Y-77454819D02*
X45642857Y-76454819D01*
X45642857Y-76454819D02*
X45976190Y-76454819D01*
X45976190Y-76454819D02*
X46071428Y-76502438D01*
X46071428Y-76502438D02*
X46119047Y-76550057D01*
X46119047Y-76550057D02*
X46166666Y-76645295D01*
X46166666Y-76645295D02*
X46166666Y-76740533D01*
X46166666Y-76740533D02*
X46119047Y-76835771D01*
X46119047Y-76835771D02*
X46071428Y-76883390D01*
X46071428Y-76883390D02*
X45976190Y-76931009D01*
X45976190Y-76931009D02*
X45642857Y-76931009D01*
X46642857Y-77073866D02*
X47404762Y-77073866D01*
X48071428Y-76454819D02*
X48166666Y-76454819D01*
X48166666Y-76454819D02*
X48261904Y-76502438D01*
X48261904Y-76502438D02*
X48309523Y-76550057D01*
X48309523Y-76550057D02*
X48357142Y-76645295D01*
X48357142Y-76645295D02*
X48404761Y-76835771D01*
X48404761Y-76835771D02*
X48404761Y-77073866D01*
X48404761Y-77073866D02*
X48357142Y-77264342D01*
X48357142Y-77264342D02*
X48309523Y-77359580D01*
X48309523Y-77359580D02*
X48261904Y-77407200D01*
X48261904Y-77407200D02*
X48166666Y-77454819D01*
X48166666Y-77454819D02*
X48071428Y-77454819D01*
X48071428Y-77454819D02*
X47976190Y-77407200D01*
X47976190Y-77407200D02*
X47928571Y-77359580D01*
X47928571Y-77359580D02*
X47880952Y-77264342D01*
X47880952Y-77264342D02*
X47833333Y-77073866D01*
X47833333Y-77073866D02*
X47833333Y-76835771D01*
X47833333Y-76835771D02*
X47880952Y-76645295D01*
X47880952Y-76645295D02*
X47928571Y-76550057D01*
X47928571Y-76550057D02*
X47976190Y-76502438D01*
X47976190Y-76502438D02*
X48071428Y-76454819D01*
X49261904Y-76454819D02*
X49071428Y-76454819D01*
X49071428Y-76454819D02*
X48976190Y-76502438D01*
X48976190Y-76502438D02*
X48928571Y-76550057D01*
X48928571Y-76550057D02*
X48833333Y-76692914D01*
X48833333Y-76692914D02*
X48785714Y-76883390D01*
X48785714Y-76883390D02*
X48785714Y-77264342D01*
X48785714Y-77264342D02*
X48833333Y-77359580D01*
X48833333Y-77359580D02*
X48880952Y-77407200D01*
X48880952Y-77407200D02*
X48976190Y-77454819D01*
X48976190Y-77454819D02*
X49166666Y-77454819D01*
X49166666Y-77454819D02*
X49261904Y-77407200D01*
X49261904Y-77407200D02*
X49309523Y-77359580D01*
X49309523Y-77359580D02*
X49357142Y-77264342D01*
X49357142Y-77264342D02*
X49357142Y-77026247D01*
X49357142Y-77026247D02*
X49309523Y-76931009D01*
X49309523Y-76931009D02*
X49261904Y-76883390D01*
X49261904Y-76883390D02*
X49166666Y-76835771D01*
X49166666Y-76835771D02*
X48976190Y-76835771D01*
X48976190Y-76835771D02*
X48880952Y-76883390D01*
X48880952Y-76883390D02*
X48833333Y-76931009D01*
X48833333Y-76931009D02*
X48785714Y-77026247D01*
X49976190Y-76454819D02*
X50071428Y-76454819D01*
X50071428Y-76454819D02*
X50166666Y-76502438D01*
X50166666Y-76502438D02*
X50214285Y-76550057D01*
X50214285Y-76550057D02*
X50261904Y-76645295D01*
X50261904Y-76645295D02*
X50309523Y-76835771D01*
X50309523Y-76835771D02*
X50309523Y-77073866D01*
X50309523Y-77073866D02*
X50261904Y-77264342D01*
X50261904Y-77264342D02*
X50214285Y-77359580D01*
X50214285Y-77359580D02*
X50166666Y-77407200D01*
X50166666Y-77407200D02*
X50071428Y-77454819D01*
X50071428Y-77454819D02*
X49976190Y-77454819D01*
X49976190Y-77454819D02*
X49880952Y-77407200D01*
X49880952Y-77407200D02*
X49833333Y-77359580D01*
X49833333Y-77359580D02*
X49785714Y-77264342D01*
X49785714Y-77264342D02*
X49738095Y-77073866D01*
X49738095Y-77073866D02*
X49738095Y-76835771D01*
X49738095Y-76835771D02*
X49785714Y-76645295D01*
X49785714Y-76645295D02*
X49833333Y-76550057D01*
X49833333Y-76550057D02*
X49880952Y-76502438D01*
X49880952Y-76502438D02*
X49976190Y-76454819D01*
X50642857Y-76454819D02*
X51261904Y-76454819D01*
X51261904Y-76454819D02*
X50928571Y-76835771D01*
X50928571Y-76835771D02*
X51071428Y-76835771D01*
X51071428Y-76835771D02*
X51166666Y-76883390D01*
X51166666Y-76883390D02*
X51214285Y-76931009D01*
X51214285Y-76931009D02*
X51261904Y-77026247D01*
X51261904Y-77026247D02*
X51261904Y-77264342D01*
X51261904Y-77264342D02*
X51214285Y-77359580D01*
X51214285Y-77359580D02*
X51166666Y-77407200D01*
X51166666Y-77407200D02*
X51071428Y-77454819D01*
X51071428Y-77454819D02*
X50785714Y-77454819D01*
X50785714Y-77454819D02*
X50690476Y-77407200D01*
X50690476Y-77407200D02*
X50642857Y-77359580D01*
X51690476Y-77073866D02*
X52452381Y-77073866D01*
X52880952Y-76550057D02*
X52928571Y-76502438D01*
X52928571Y-76502438D02*
X53023809Y-76454819D01*
X53023809Y-76454819D02*
X53261904Y-76454819D01*
X53261904Y-76454819D02*
X53357142Y-76502438D01*
X53357142Y-76502438D02*
X53404761Y-76550057D01*
X53404761Y-76550057D02*
X53452380Y-76645295D01*
X53452380Y-76645295D02*
X53452380Y-76740533D01*
X53452380Y-76740533D02*
X53404761Y-76883390D01*
X53404761Y-76883390D02*
X52833333Y-77454819D01*
X52833333Y-77454819D02*
X53452380Y-77454819D01*
X53833333Y-77169104D02*
X54309523Y-77169104D01*
X53738095Y-77454819D02*
X54071428Y-76454819D01*
X54071428Y-76454819D02*
X54404761Y-77454819D01*
X55261904Y-77454819D02*
X54690476Y-77454819D01*
X54976190Y-77454819D02*
X54976190Y-76454819D01*
X54976190Y-76454819D02*
X54880952Y-76597676D01*
X54880952Y-76597676D02*
X54785714Y-76692914D01*
X54785714Y-76692914D02*
X54690476Y-76740533D01*
X48545833Y-32384819D02*
X48069643Y-32384819D01*
X48069643Y-32384819D02*
X48069643Y-31384819D01*
X48783929Y-31384819D02*
X49402976Y-31384819D01*
X49402976Y-31384819D02*
X49069643Y-31765771D01*
X49069643Y-31765771D02*
X49212500Y-31765771D01*
X49212500Y-31765771D02*
X49307738Y-31813390D01*
X49307738Y-31813390D02*
X49355357Y-31861009D01*
X49355357Y-31861009D02*
X49402976Y-31956247D01*
X49402976Y-31956247D02*
X49402976Y-32194342D01*
X49402976Y-32194342D02*
X49355357Y-32289580D01*
X49355357Y-32289580D02*
X49307738Y-32337200D01*
X49307738Y-32337200D02*
X49212500Y-32384819D01*
X49212500Y-32384819D02*
X48926786Y-32384819D01*
X48926786Y-32384819D02*
X48831548Y-32337200D01*
X48831548Y-32337200D02*
X48783929Y-32289580D01*
X77857142Y-60289580D02*
X77809523Y-60337200D01*
X77809523Y-60337200D02*
X77666666Y-60384819D01*
X77666666Y-60384819D02*
X77571428Y-60384819D01*
X77571428Y-60384819D02*
X77428571Y-60337200D01*
X77428571Y-60337200D02*
X77333333Y-60241961D01*
X77333333Y-60241961D02*
X77285714Y-60146723D01*
X77285714Y-60146723D02*
X77238095Y-59956247D01*
X77238095Y-59956247D02*
X77238095Y-59813390D01*
X77238095Y-59813390D02*
X77285714Y-59622914D01*
X77285714Y-59622914D02*
X77333333Y-59527676D01*
X77333333Y-59527676D02*
X77428571Y-59432438D01*
X77428571Y-59432438D02*
X77571428Y-59384819D01*
X77571428Y-59384819D02*
X77666666Y-59384819D01*
X77666666Y-59384819D02*
X77809523Y-59432438D01*
X77809523Y-59432438D02*
X77857142Y-59480057D01*
X78809523Y-60384819D02*
X78238095Y-60384819D01*
X78523809Y-60384819D02*
X78523809Y-59384819D01*
X78523809Y-59384819D02*
X78428571Y-59527676D01*
X78428571Y-59527676D02*
X78333333Y-59622914D01*
X78333333Y-59622914D02*
X78238095Y-59670533D01*
X79285714Y-60384819D02*
X79476190Y-60384819D01*
X79476190Y-60384819D02*
X79571428Y-60337200D01*
X79571428Y-60337200D02*
X79619047Y-60289580D01*
X79619047Y-60289580D02*
X79714285Y-60146723D01*
X79714285Y-60146723D02*
X79761904Y-59956247D01*
X79761904Y-59956247D02*
X79761904Y-59575295D01*
X79761904Y-59575295D02*
X79714285Y-59480057D01*
X79714285Y-59480057D02*
X79666666Y-59432438D01*
X79666666Y-59432438D02*
X79571428Y-59384819D01*
X79571428Y-59384819D02*
X79380952Y-59384819D01*
X79380952Y-59384819D02*
X79285714Y-59432438D01*
X79285714Y-59432438D02*
X79238095Y-59480057D01*
X79238095Y-59480057D02*
X79190476Y-59575295D01*
X79190476Y-59575295D02*
X79190476Y-59813390D01*
X79190476Y-59813390D02*
X79238095Y-59908628D01*
X79238095Y-59908628D02*
X79285714Y-59956247D01*
X79285714Y-59956247D02*
X79380952Y-60003866D01*
X79380952Y-60003866D02*
X79571428Y-60003866D01*
X79571428Y-60003866D02*
X79666666Y-59956247D01*
X79666666Y-59956247D02*
X79714285Y-59908628D01*
X79714285Y-59908628D02*
X79761904Y-59813390D01*
X92333333Y-60454819D02*
X91857143Y-60454819D01*
X91857143Y-60454819D02*
X91857143Y-59454819D01*
X93095238Y-59788152D02*
X93095238Y-60454819D01*
X92857143Y-59407200D02*
X92619048Y-60121485D01*
X92619048Y-60121485D02*
X93238095Y-60121485D01*
X56333333Y-83359580D02*
X56285714Y-83407200D01*
X56285714Y-83407200D02*
X56142857Y-83454819D01*
X56142857Y-83454819D02*
X56047619Y-83454819D01*
X56047619Y-83454819D02*
X55904762Y-83407200D01*
X55904762Y-83407200D02*
X55809524Y-83311961D01*
X55809524Y-83311961D02*
X55761905Y-83216723D01*
X55761905Y-83216723D02*
X55714286Y-83026247D01*
X55714286Y-83026247D02*
X55714286Y-82883390D01*
X55714286Y-82883390D02*
X55761905Y-82692914D01*
X55761905Y-82692914D02*
X55809524Y-82597676D01*
X55809524Y-82597676D02*
X55904762Y-82502438D01*
X55904762Y-82502438D02*
X56047619Y-82454819D01*
X56047619Y-82454819D02*
X56142857Y-82454819D01*
X56142857Y-82454819D02*
X56285714Y-82502438D01*
X56285714Y-82502438D02*
X56333333Y-82550057D01*
X56666667Y-82454819D02*
X57285714Y-82454819D01*
X57285714Y-82454819D02*
X56952381Y-82835771D01*
X56952381Y-82835771D02*
X57095238Y-82835771D01*
X57095238Y-82835771D02*
X57190476Y-82883390D01*
X57190476Y-82883390D02*
X57238095Y-82931009D01*
X57238095Y-82931009D02*
X57285714Y-83026247D01*
X57285714Y-83026247D02*
X57285714Y-83264342D01*
X57285714Y-83264342D02*
X57238095Y-83359580D01*
X57238095Y-83359580D02*
X57190476Y-83407200D01*
X57190476Y-83407200D02*
X57095238Y-83454819D01*
X57095238Y-83454819D02*
X56809524Y-83454819D01*
X56809524Y-83454819D02*
X56714286Y-83407200D01*
X56714286Y-83407200D02*
X56666667Y-83359580D01*
X94404761Y-33550057D02*
X94309523Y-33502438D01*
X94309523Y-33502438D02*
X94214285Y-33407200D01*
X94214285Y-33407200D02*
X94071428Y-33264342D01*
X94071428Y-33264342D02*
X93976190Y-33216723D01*
X93976190Y-33216723D02*
X93880952Y-33216723D01*
X93928571Y-33454819D02*
X93833333Y-33407200D01*
X93833333Y-33407200D02*
X93738095Y-33311961D01*
X93738095Y-33311961D02*
X93690476Y-33121485D01*
X93690476Y-33121485D02*
X93690476Y-32788152D01*
X93690476Y-32788152D02*
X93738095Y-32597676D01*
X93738095Y-32597676D02*
X93833333Y-32502438D01*
X93833333Y-32502438D02*
X93928571Y-32454819D01*
X93928571Y-32454819D02*
X94119047Y-32454819D01*
X94119047Y-32454819D02*
X94214285Y-32502438D01*
X94214285Y-32502438D02*
X94309523Y-32597676D01*
X94309523Y-32597676D02*
X94357142Y-32788152D01*
X94357142Y-32788152D02*
X94357142Y-33121485D01*
X94357142Y-33121485D02*
X94309523Y-33311961D01*
X94309523Y-33311961D02*
X94214285Y-33407200D01*
X94214285Y-33407200D02*
X94119047Y-33454819D01*
X94119047Y-33454819D02*
X93928571Y-33454819D01*
X95309523Y-33454819D02*
X94738095Y-33454819D01*
X95023809Y-33454819D02*
X95023809Y-32454819D01*
X95023809Y-32454819D02*
X94928571Y-32597676D01*
X94928571Y-32597676D02*
X94833333Y-32692914D01*
X94833333Y-32692914D02*
X94738095Y-32740533D01*
X68161310Y-74804819D02*
X68161310Y-73804819D01*
X69208928Y-74709580D02*
X69161309Y-74757200D01*
X69161309Y-74757200D02*
X69018452Y-74804819D01*
X69018452Y-74804819D02*
X68923214Y-74804819D01*
X68923214Y-74804819D02*
X68780357Y-74757200D01*
X68780357Y-74757200D02*
X68685119Y-74661961D01*
X68685119Y-74661961D02*
X68637500Y-74566723D01*
X68637500Y-74566723D02*
X68589881Y-74376247D01*
X68589881Y-74376247D02*
X68589881Y-74233390D01*
X68589881Y-74233390D02*
X68637500Y-74042914D01*
X68637500Y-74042914D02*
X68685119Y-73947676D01*
X68685119Y-73947676D02*
X68780357Y-73852438D01*
X68780357Y-73852438D02*
X68923214Y-73804819D01*
X68923214Y-73804819D02*
X69018452Y-73804819D01*
X69018452Y-73804819D02*
X69161309Y-73852438D01*
X69161309Y-73852438D02*
X69208928Y-73900057D01*
X70161309Y-74804819D02*
X69589881Y-74804819D01*
X69875595Y-74804819D02*
X69875595Y-73804819D01*
X69875595Y-73804819D02*
X69780357Y-73947676D01*
X69780357Y-73947676D02*
X69685119Y-74042914D01*
X69685119Y-74042914D02*
X69589881Y-74090533D01*
X79100595Y-77904819D02*
X79100595Y-78714342D01*
X79100595Y-78714342D02*
X79148214Y-78809580D01*
X79148214Y-78809580D02*
X79195833Y-78857200D01*
X79195833Y-78857200D02*
X79291071Y-78904819D01*
X79291071Y-78904819D02*
X79481547Y-78904819D01*
X79481547Y-78904819D02*
X79576785Y-78857200D01*
X79576785Y-78857200D02*
X79624404Y-78809580D01*
X79624404Y-78809580D02*
X79672023Y-78714342D01*
X79672023Y-78714342D02*
X79672023Y-77904819D01*
X80672023Y-78904819D02*
X80100595Y-78904819D01*
X80386309Y-78904819D02*
X80386309Y-77904819D01*
X80386309Y-77904819D02*
X80291071Y-78047676D01*
X80291071Y-78047676D02*
X80195833Y-78142914D01*
X80195833Y-78142914D02*
X80100595Y-78190533D01*
X55045833Y-40859580D02*
X54998214Y-40907200D01*
X54998214Y-40907200D02*
X54855357Y-40954819D01*
X54855357Y-40954819D02*
X54760119Y-40954819D01*
X54760119Y-40954819D02*
X54617262Y-40907200D01*
X54617262Y-40907200D02*
X54522024Y-40811961D01*
X54522024Y-40811961D02*
X54474405Y-40716723D01*
X54474405Y-40716723D02*
X54426786Y-40526247D01*
X54426786Y-40526247D02*
X54426786Y-40383390D01*
X54426786Y-40383390D02*
X54474405Y-40192914D01*
X54474405Y-40192914D02*
X54522024Y-40097676D01*
X54522024Y-40097676D02*
X54617262Y-40002438D01*
X54617262Y-40002438D02*
X54760119Y-39954819D01*
X54760119Y-39954819D02*
X54855357Y-39954819D01*
X54855357Y-39954819D02*
X54998214Y-40002438D01*
X54998214Y-40002438D02*
X55045833Y-40050057D01*
X55902976Y-40288152D02*
X55902976Y-40954819D01*
X55664881Y-39907200D02*
X55426786Y-40621485D01*
X55426786Y-40621485D02*
X56045833Y-40621485D01*
X44331547Y-48361009D02*
X43998214Y-48361009D01*
X43998214Y-48884819D02*
X43998214Y-47884819D01*
X43998214Y-47884819D02*
X44474404Y-47884819D01*
X45188690Y-48361009D02*
X45331547Y-48408628D01*
X45331547Y-48408628D02*
X45379166Y-48456247D01*
X45379166Y-48456247D02*
X45426785Y-48551485D01*
X45426785Y-48551485D02*
X45426785Y-48694342D01*
X45426785Y-48694342D02*
X45379166Y-48789580D01*
X45379166Y-48789580D02*
X45331547Y-48837200D01*
X45331547Y-48837200D02*
X45236309Y-48884819D01*
X45236309Y-48884819D02*
X44855357Y-48884819D01*
X44855357Y-48884819D02*
X44855357Y-47884819D01*
X44855357Y-47884819D02*
X45188690Y-47884819D01*
X45188690Y-47884819D02*
X45283928Y-47932438D01*
X45283928Y-47932438D02*
X45331547Y-47980057D01*
X45331547Y-47980057D02*
X45379166Y-48075295D01*
X45379166Y-48075295D02*
X45379166Y-48170533D01*
X45379166Y-48170533D02*
X45331547Y-48265771D01*
X45331547Y-48265771D02*
X45283928Y-48313390D01*
X45283928Y-48313390D02*
X45188690Y-48361009D01*
X45188690Y-48361009D02*
X44855357Y-48361009D01*
X45855357Y-48503866D02*
X46617262Y-48503866D01*
X47283928Y-47884819D02*
X47379166Y-47884819D01*
X47379166Y-47884819D02*
X47474404Y-47932438D01*
X47474404Y-47932438D02*
X47522023Y-47980057D01*
X47522023Y-47980057D02*
X47569642Y-48075295D01*
X47569642Y-48075295D02*
X47617261Y-48265771D01*
X47617261Y-48265771D02*
X47617261Y-48503866D01*
X47617261Y-48503866D02*
X47569642Y-48694342D01*
X47569642Y-48694342D02*
X47522023Y-48789580D01*
X47522023Y-48789580D02*
X47474404Y-48837200D01*
X47474404Y-48837200D02*
X47379166Y-48884819D01*
X47379166Y-48884819D02*
X47283928Y-48884819D01*
X47283928Y-48884819D02*
X47188690Y-48837200D01*
X47188690Y-48837200D02*
X47141071Y-48789580D01*
X47141071Y-48789580D02*
X47093452Y-48694342D01*
X47093452Y-48694342D02*
X47045833Y-48503866D01*
X47045833Y-48503866D02*
X47045833Y-48265771D01*
X47045833Y-48265771D02*
X47093452Y-48075295D01*
X47093452Y-48075295D02*
X47141071Y-47980057D01*
X47141071Y-47980057D02*
X47188690Y-47932438D01*
X47188690Y-47932438D02*
X47283928Y-47884819D01*
X48474404Y-47884819D02*
X48283928Y-47884819D01*
X48283928Y-47884819D02*
X48188690Y-47932438D01*
X48188690Y-47932438D02*
X48141071Y-47980057D01*
X48141071Y-47980057D02*
X48045833Y-48122914D01*
X48045833Y-48122914D02*
X47998214Y-48313390D01*
X47998214Y-48313390D02*
X47998214Y-48694342D01*
X47998214Y-48694342D02*
X48045833Y-48789580D01*
X48045833Y-48789580D02*
X48093452Y-48837200D01*
X48093452Y-48837200D02*
X48188690Y-48884819D01*
X48188690Y-48884819D02*
X48379166Y-48884819D01*
X48379166Y-48884819D02*
X48474404Y-48837200D01*
X48474404Y-48837200D02*
X48522023Y-48789580D01*
X48522023Y-48789580D02*
X48569642Y-48694342D01*
X48569642Y-48694342D02*
X48569642Y-48456247D01*
X48569642Y-48456247D02*
X48522023Y-48361009D01*
X48522023Y-48361009D02*
X48474404Y-48313390D01*
X48474404Y-48313390D02*
X48379166Y-48265771D01*
X48379166Y-48265771D02*
X48188690Y-48265771D01*
X48188690Y-48265771D02*
X48093452Y-48313390D01*
X48093452Y-48313390D02*
X48045833Y-48361009D01*
X48045833Y-48361009D02*
X47998214Y-48456247D01*
X49188690Y-47884819D02*
X49283928Y-47884819D01*
X49283928Y-47884819D02*
X49379166Y-47932438D01*
X49379166Y-47932438D02*
X49426785Y-47980057D01*
X49426785Y-47980057D02*
X49474404Y-48075295D01*
X49474404Y-48075295D02*
X49522023Y-48265771D01*
X49522023Y-48265771D02*
X49522023Y-48503866D01*
X49522023Y-48503866D02*
X49474404Y-48694342D01*
X49474404Y-48694342D02*
X49426785Y-48789580D01*
X49426785Y-48789580D02*
X49379166Y-48837200D01*
X49379166Y-48837200D02*
X49283928Y-48884819D01*
X49283928Y-48884819D02*
X49188690Y-48884819D01*
X49188690Y-48884819D02*
X49093452Y-48837200D01*
X49093452Y-48837200D02*
X49045833Y-48789580D01*
X49045833Y-48789580D02*
X48998214Y-48694342D01*
X48998214Y-48694342D02*
X48950595Y-48503866D01*
X48950595Y-48503866D02*
X48950595Y-48265771D01*
X48950595Y-48265771D02*
X48998214Y-48075295D01*
X48998214Y-48075295D02*
X49045833Y-47980057D01*
X49045833Y-47980057D02*
X49093452Y-47932438D01*
X49093452Y-47932438D02*
X49188690Y-47884819D01*
X49855357Y-47884819D02*
X50474404Y-47884819D01*
X50474404Y-47884819D02*
X50141071Y-48265771D01*
X50141071Y-48265771D02*
X50283928Y-48265771D01*
X50283928Y-48265771D02*
X50379166Y-48313390D01*
X50379166Y-48313390D02*
X50426785Y-48361009D01*
X50426785Y-48361009D02*
X50474404Y-48456247D01*
X50474404Y-48456247D02*
X50474404Y-48694342D01*
X50474404Y-48694342D02*
X50426785Y-48789580D01*
X50426785Y-48789580D02*
X50379166Y-48837200D01*
X50379166Y-48837200D02*
X50283928Y-48884819D01*
X50283928Y-48884819D02*
X49998214Y-48884819D01*
X49998214Y-48884819D02*
X49902976Y-48837200D01*
X49902976Y-48837200D02*
X49855357Y-48789580D01*
X50902976Y-48503866D02*
X51664881Y-48503866D01*
X52093452Y-47980057D02*
X52141071Y-47932438D01*
X52141071Y-47932438D02*
X52236309Y-47884819D01*
X52236309Y-47884819D02*
X52474404Y-47884819D01*
X52474404Y-47884819D02*
X52569642Y-47932438D01*
X52569642Y-47932438D02*
X52617261Y-47980057D01*
X52617261Y-47980057D02*
X52664880Y-48075295D01*
X52664880Y-48075295D02*
X52664880Y-48170533D01*
X52664880Y-48170533D02*
X52617261Y-48313390D01*
X52617261Y-48313390D02*
X52045833Y-48884819D01*
X52045833Y-48884819D02*
X52664880Y-48884819D01*
X53045833Y-48599104D02*
X53522023Y-48599104D01*
X52950595Y-48884819D02*
X53283928Y-47884819D01*
X53283928Y-47884819D02*
X53617261Y-48884819D01*
X53902976Y-47980057D02*
X53950595Y-47932438D01*
X53950595Y-47932438D02*
X54045833Y-47884819D01*
X54045833Y-47884819D02*
X54283928Y-47884819D01*
X54283928Y-47884819D02*
X54379166Y-47932438D01*
X54379166Y-47932438D02*
X54426785Y-47980057D01*
X54426785Y-47980057D02*
X54474404Y-48075295D01*
X54474404Y-48075295D02*
X54474404Y-48170533D01*
X54474404Y-48170533D02*
X54426785Y-48313390D01*
X54426785Y-48313390D02*
X53855357Y-48884819D01*
X53855357Y-48884819D02*
X54474404Y-48884819D01*
X92333333Y-46024819D02*
X92000000Y-45548628D01*
X91761905Y-46024819D02*
X91761905Y-45024819D01*
X91761905Y-45024819D02*
X92142857Y-45024819D01*
X92142857Y-45024819D02*
X92238095Y-45072438D01*
X92238095Y-45072438D02*
X92285714Y-45120057D01*
X92285714Y-45120057D02*
X92333333Y-45215295D01*
X92333333Y-45215295D02*
X92333333Y-45358152D01*
X92333333Y-45358152D02*
X92285714Y-45453390D01*
X92285714Y-45453390D02*
X92238095Y-45501009D01*
X92238095Y-45501009D02*
X92142857Y-45548628D01*
X92142857Y-45548628D02*
X91761905Y-45548628D01*
X93285714Y-46024819D02*
X92714286Y-46024819D01*
X93000000Y-46024819D02*
X93000000Y-45024819D01*
X93000000Y-45024819D02*
X92904762Y-45167676D01*
X92904762Y-45167676D02*
X92809524Y-45262914D01*
X92809524Y-45262914D02*
X92714286Y-45310533D01*
X88002438Y-50547619D02*
X87954819Y-50642857D01*
X87954819Y-50642857D02*
X87954819Y-50785714D01*
X87954819Y-50785714D02*
X88002438Y-50928571D01*
X88002438Y-50928571D02*
X88097676Y-51023809D01*
X88097676Y-51023809D02*
X88192914Y-51071428D01*
X88192914Y-51071428D02*
X88383390Y-51119047D01*
X88383390Y-51119047D02*
X88526247Y-51119047D01*
X88526247Y-51119047D02*
X88716723Y-51071428D01*
X88716723Y-51071428D02*
X88811961Y-51023809D01*
X88811961Y-51023809D02*
X88907200Y-50928571D01*
X88907200Y-50928571D02*
X88954819Y-50785714D01*
X88954819Y-50785714D02*
X88954819Y-50690476D01*
X88954819Y-50690476D02*
X88907200Y-50547619D01*
X88907200Y-50547619D02*
X88859580Y-50500000D01*
X88859580Y-50500000D02*
X88526247Y-50500000D01*
X88526247Y-50500000D02*
X88526247Y-50690476D01*
X88954819Y-49595238D02*
X88954819Y-50071428D01*
X88954819Y-50071428D02*
X87954819Y-50071428D01*
X88383390Y-49119047D02*
X88335771Y-49214285D01*
X88335771Y-49214285D02*
X88288152Y-49261904D01*
X88288152Y-49261904D02*
X88192914Y-49309523D01*
X88192914Y-49309523D02*
X88145295Y-49309523D01*
X88145295Y-49309523D02*
X88050057Y-49261904D01*
X88050057Y-49261904D02*
X88002438Y-49214285D01*
X88002438Y-49214285D02*
X87954819Y-49119047D01*
X87954819Y-49119047D02*
X87954819Y-48928571D01*
X87954819Y-48928571D02*
X88002438Y-48833333D01*
X88002438Y-48833333D02*
X88050057Y-48785714D01*
X88050057Y-48785714D02*
X88145295Y-48738095D01*
X88145295Y-48738095D02*
X88192914Y-48738095D01*
X88192914Y-48738095D02*
X88288152Y-48785714D01*
X88288152Y-48785714D02*
X88335771Y-48833333D01*
X88335771Y-48833333D02*
X88383390Y-48928571D01*
X88383390Y-48928571D02*
X88383390Y-49119047D01*
X88383390Y-49119047D02*
X88431009Y-49214285D01*
X88431009Y-49214285D02*
X88478628Y-49261904D01*
X88478628Y-49261904D02*
X88573866Y-49309523D01*
X88573866Y-49309523D02*
X88764342Y-49309523D01*
X88764342Y-49309523D02*
X88859580Y-49261904D01*
X88859580Y-49261904D02*
X88907200Y-49214285D01*
X88907200Y-49214285D02*
X88954819Y-49119047D01*
X88954819Y-49119047D02*
X88954819Y-48928571D01*
X88954819Y-48928571D02*
X88907200Y-48833333D01*
X88907200Y-48833333D02*
X88859580Y-48785714D01*
X88859580Y-48785714D02*
X88764342Y-48738095D01*
X88764342Y-48738095D02*
X88573866Y-48738095D01*
X88573866Y-48738095D02*
X88478628Y-48785714D01*
X88478628Y-48785714D02*
X88431009Y-48833333D01*
X88431009Y-48833333D02*
X88383390Y-48928571D01*
X87954819Y-47833333D02*
X87954819Y-48309523D01*
X87954819Y-48309523D02*
X88431009Y-48357142D01*
X88431009Y-48357142D02*
X88383390Y-48309523D01*
X88383390Y-48309523D02*
X88335771Y-48214285D01*
X88335771Y-48214285D02*
X88335771Y-47976190D01*
X88335771Y-47976190D02*
X88383390Y-47880952D01*
X88383390Y-47880952D02*
X88431009Y-47833333D01*
X88431009Y-47833333D02*
X88526247Y-47785714D01*
X88526247Y-47785714D02*
X88764342Y-47785714D01*
X88764342Y-47785714D02*
X88859580Y-47833333D01*
X88859580Y-47833333D02*
X88907200Y-47880952D01*
X88907200Y-47880952D02*
X88954819Y-47976190D01*
X88954819Y-47976190D02*
X88954819Y-48214285D01*
X88954819Y-48214285D02*
X88907200Y-48309523D01*
X88907200Y-48309523D02*
X88859580Y-48357142D01*
X87954819Y-47166666D02*
X87954819Y-47071428D01*
X87954819Y-47071428D02*
X88002438Y-46976190D01*
X88002438Y-46976190D02*
X88050057Y-46928571D01*
X88050057Y-46928571D02*
X88145295Y-46880952D01*
X88145295Y-46880952D02*
X88335771Y-46833333D01*
X88335771Y-46833333D02*
X88573866Y-46833333D01*
X88573866Y-46833333D02*
X88764342Y-46880952D01*
X88764342Y-46880952D02*
X88859580Y-46928571D01*
X88859580Y-46928571D02*
X88907200Y-46976190D01*
X88907200Y-46976190D02*
X88954819Y-47071428D01*
X88954819Y-47071428D02*
X88954819Y-47166666D01*
X88954819Y-47166666D02*
X88907200Y-47261904D01*
X88907200Y-47261904D02*
X88859580Y-47309523D01*
X88859580Y-47309523D02*
X88764342Y-47357142D01*
X88764342Y-47357142D02*
X88573866Y-47404761D01*
X88573866Y-47404761D02*
X88335771Y-47404761D01*
X88335771Y-47404761D02*
X88145295Y-47357142D01*
X88145295Y-47357142D02*
X88050057Y-47309523D01*
X88050057Y-47309523D02*
X88002438Y-47261904D01*
X88002438Y-47261904D02*
X87954819Y-47166666D01*
X88002438Y-45880952D02*
X87954819Y-45976190D01*
X87954819Y-45976190D02*
X87954819Y-46119047D01*
X87954819Y-46119047D02*
X88002438Y-46261904D01*
X88002438Y-46261904D02*
X88097676Y-46357142D01*
X88097676Y-46357142D02*
X88192914Y-46404761D01*
X88192914Y-46404761D02*
X88383390Y-46452380D01*
X88383390Y-46452380D02*
X88526247Y-46452380D01*
X88526247Y-46452380D02*
X88716723Y-46404761D01*
X88716723Y-46404761D02*
X88811961Y-46357142D01*
X88811961Y-46357142D02*
X88907200Y-46261904D01*
X88907200Y-46261904D02*
X88954819Y-46119047D01*
X88954819Y-46119047D02*
X88954819Y-46023809D01*
X88954819Y-46023809D02*
X88907200Y-45880952D01*
X88907200Y-45880952D02*
X88859580Y-45833333D01*
X88859580Y-45833333D02*
X88526247Y-45833333D01*
X88526247Y-45833333D02*
X88526247Y-46023809D01*
X88954819Y-44880952D02*
X88954819Y-45452380D01*
X88954819Y-45166666D02*
X87954819Y-45166666D01*
X87954819Y-45166666D02*
X88097676Y-45261904D01*
X88097676Y-45261904D02*
X88192914Y-45357142D01*
X88192914Y-45357142D02*
X88240533Y-45452380D01*
X86333333Y-68954819D02*
X85857143Y-68954819D01*
X85857143Y-68954819D02*
X85857143Y-67954819D01*
X87190476Y-68954819D02*
X86619048Y-68954819D01*
X86904762Y-68954819D02*
X86904762Y-67954819D01*
X86904762Y-67954819D02*
X86809524Y-68097676D01*
X86809524Y-68097676D02*
X86714286Y-68192914D01*
X86714286Y-68192914D02*
X86619048Y-68240533D01*
%TO.C,R4*%
D11*
X70262742Y-27477500D02*
X70737258Y-27477500D01*
X70262742Y-28522500D02*
X70737258Y-28522500D01*
%TO.C,C21*%
X80084420Y-33490000D02*
X80365580Y-33490000D01*
X80084420Y-34510000D02*
X80365580Y-34510000D01*
%TO.C,J2*%
X37350000Y-22355000D02*
X36300000Y-22355000D01*
X37350000Y-34645000D02*
X36300000Y-34645000D01*
X40520000Y-32900000D02*
X40520000Y-24100000D01*
X40520000Y-32900000D02*
X41275000Y-32900000D01*
%TO.C,R8*%
X102237258Y-30977500D02*
X101762742Y-30977500D01*
X102237258Y-32022500D02*
X101762742Y-32022500D01*
%TO.C,U2*%
X66077500Y-38640000D02*
X66127500Y-38640000D01*
X66077500Y-40460000D02*
X66077500Y-38640000D01*
X66127500Y-40460000D02*
X66077500Y-40460000D01*
X69147500Y-38640000D02*
X69197500Y-38640000D01*
X69197500Y-38640000D02*
X69197500Y-40460000D01*
X69197500Y-40460000D02*
X69147500Y-40460000D01*
X69147500Y-38100000D02*
X69477500Y-37860000D01*
X69477500Y-38340000D01*
X69147500Y-38100000D01*
G36*
X69477500Y-38340000D02*
G01*
X69147500Y-38100000D01*
X69477500Y-37860000D01*
X69477500Y-38340000D01*
G37*
%TO.C,C2*%
X48001248Y-34090000D02*
X49423752Y-34090000D01*
X48001248Y-35910000D02*
X49423752Y-35910000D01*
%TO.C,J4*%
X37200000Y-56855000D02*
X36150000Y-56855000D01*
X37200000Y-69145000D02*
X36150000Y-69145000D01*
X40370000Y-67400000D02*
X40370000Y-58600000D01*
X40370000Y-67400000D02*
X41125000Y-67400000D01*
%TO.C,C8*%
X56640580Y-74990000D02*
X56359420Y-74990000D01*
X56640580Y-76010000D02*
X56359420Y-76010000D01*
%TO.C,c9*%
X76859420Y-22990000D02*
X77140580Y-22990000D01*
X76859420Y-24010000D02*
X77140580Y-24010000D01*
%TO.C,C15*%
X87215000Y-38640580D02*
X87215000Y-38359420D01*
X88235000Y-38640580D02*
X88235000Y-38359420D01*
%TO.C,J5*%
X37350000Y-72855000D02*
X36300000Y-72855000D01*
X37350000Y-85145000D02*
X36300000Y-85145000D01*
X40520000Y-83400000D02*
X40520000Y-74600000D01*
X40520000Y-83400000D02*
X41275000Y-83400000D01*
%TO.C,J3*%
X37350000Y-40855000D02*
X36300000Y-40855000D01*
X37350000Y-53145000D02*
X36300000Y-53145000D01*
X40520000Y-51400000D02*
X40520000Y-42600000D01*
X40520000Y-51400000D02*
X41275000Y-51400000D01*
%TO.C,C17*%
X75715000Y-36415580D02*
X75715000Y-36134420D01*
X76735000Y-36415580D02*
X76735000Y-36134420D01*
%TO.C,F1*%
X57602064Y-63590000D02*
X56397936Y-63590000D01*
X57602064Y-65410000D02*
X56397936Y-65410000D01*
%TO.C,F2*%
X50602064Y-81090000D02*
X49397936Y-81090000D01*
X50602064Y-82910000D02*
X49397936Y-82910000D01*
%TO.C,F3*%
X57814564Y-46590000D02*
X56610436Y-46590000D01*
X57814564Y-48410000D02*
X56610436Y-48410000D01*
%TO.C,C6*%
X48853080Y-24990000D02*
X48571920Y-24990000D01*
X48853080Y-26010000D02*
X48571920Y-26010000D01*
%TO.C,C1*%
X48788748Y-63590000D02*
X50211252Y-63590000D01*
X48788748Y-65410000D02*
X50211252Y-65410000D01*
%TO.C,C5*%
X56640580Y-57990000D02*
X56359420Y-57990000D01*
X56640580Y-59010000D02*
X56359420Y-59010000D01*
%TO.C,F4*%
X57314564Y-29590000D02*
X56110436Y-29590000D01*
X57314564Y-31410000D02*
X56110436Y-31410000D01*
%TO.C,R9*%
X84462258Y-38477500D02*
X83987742Y-38477500D01*
X84462258Y-39522500D02*
X83987742Y-39522500D01*
%TO.C,C16*%
X90090000Y-54288748D02*
X90090000Y-55711252D01*
X91910000Y-54288748D02*
X91910000Y-55711252D01*
%TO.C,C14*%
X86359420Y-57990000D02*
X86640580Y-57990000D01*
X86359420Y-59010000D02*
X86640580Y-59010000D01*
%TO.C,C12*%
X87140580Y-23490000D02*
X86859420Y-23490000D01*
X87140580Y-24510000D02*
X86859420Y-24510000D01*
%TO.C,C7*%
X49353080Y-41990000D02*
X49071920Y-41990000D01*
X49353080Y-43010000D02*
X49071920Y-43010000D01*
%TO.C,Y1*%
X79940000Y-26410000D02*
X83360000Y-26410000D01*
X83360000Y-26410000D02*
X83360000Y-22290000D01*
%TO.C,LED1*%
X94015000Y-38552500D02*
X94015000Y-40022500D01*
X94015000Y-40022500D02*
X96300000Y-40022500D01*
X96300000Y-38552500D02*
X94015000Y-38552500D01*
%TO.C,C10*%
X94859420Y-23490000D02*
X95140580Y-23490000D01*
X94859420Y-24510000D02*
X95140580Y-24510000D01*
%TO.C,C13*%
X91140580Y-23490000D02*
X90859420Y-23490000D01*
X91140580Y-24510000D02*
X90859420Y-24510000D01*
%TO.C,C18*%
X74359420Y-57990000D02*
X74640580Y-57990000D01*
X74359420Y-59010000D02*
X74640580Y-59010000D01*
%TO.C,C11*%
X99238748Y-23265000D02*
X99761252Y-23265000D01*
X99238748Y-24735000D02*
X99761252Y-24735000D01*
%TO.C,R5*%
X92737258Y-41977500D02*
X92262742Y-41977500D01*
X92737258Y-43022500D02*
X92262742Y-43022500D01*
%TO.C,J1*%
X86390000Y-76785000D02*
X86390000Y-77055000D01*
X88140000Y-71380000D02*
X88140000Y-73000000D01*
X88140000Y-73000000D02*
X87100000Y-73000000D01*
X96860000Y-70900000D02*
X96400000Y-70900000D01*
X96860000Y-70900000D02*
X96860000Y-73000000D01*
X97900000Y-73000000D02*
X96860000Y-73000000D01*
X98610000Y-76785000D02*
X98610000Y-77055000D01*
%TO.C,C22*%
X80084420Y-38490000D02*
X80365580Y-38490000D01*
X80084420Y-39510000D02*
X80365580Y-39510000D01*
%TO.C,R6*%
X97762742Y-41977500D02*
X98237258Y-41977500D01*
X97762742Y-43022500D02*
X98237258Y-43022500D01*
%TO.C,C20*%
X82640580Y-57990000D02*
X82359420Y-57990000D01*
X82640580Y-59010000D02*
X82359420Y-59010000D01*
%TO.C,J6*%
X100700000Y-38442500D02*
X115400000Y-38442500D01*
X100700000Y-47642500D02*
X100700000Y-38442500D01*
X109500000Y-47642500D02*
X100700000Y-47642500D01*
X114550000Y-38242500D02*
X115600000Y-38242500D01*
X115400000Y-38442500D02*
X115400000Y-41042500D01*
X115400000Y-44942500D02*
X115400000Y-47642500D01*
X115400000Y-47642500D02*
X113500000Y-47642500D01*
X115600000Y-39292500D02*
X115600000Y-38242500D01*
%TO.C,R3*%
X71762742Y-22967500D02*
X72237258Y-22967500D01*
X71762742Y-24012500D02*
X72237258Y-24012500D01*
%TO.C,F5*%
X104602064Y-23090000D02*
X103397936Y-23090000D01*
X104602064Y-24910000D02*
X103397936Y-24910000D01*
%TO.C,R2*%
X96762742Y-46477500D02*
X97237258Y-46477500D01*
X96762742Y-47522500D02*
X97237258Y-47522500D01*
%TO.C,L2*%
X49162779Y-57990000D02*
X48837221Y-57990000D01*
X49162779Y-59010000D02*
X48837221Y-59010000D01*
%TO.C,R7*%
X98262742Y-30977500D02*
X98737258Y-30977500D01*
X98262742Y-32022500D02*
X98737258Y-32022500D01*
%TO.C,FB-0603-2A1*%
X49662779Y-74990000D02*
X49337221Y-74990000D01*
X49662779Y-76010000D02*
X49337221Y-76010000D01*
%TO.C,L3*%
X48875279Y-29990000D02*
X48549721Y-29990000D01*
X48875279Y-31010000D02*
X48549721Y-31010000D01*
%TO.C,C19*%
X78640580Y-57990000D02*
X78359420Y-57990000D01*
X78640580Y-59010000D02*
X78359420Y-59010000D01*
%TO.C,L4*%
X89990000Y-59549721D02*
X89990000Y-59875279D01*
X91010000Y-59549721D02*
X91010000Y-59875279D01*
%TO.C,C3*%
X55788748Y-80090000D02*
X57211252Y-80090000D01*
X55788748Y-81910000D02*
X57211252Y-81910000D01*
%TO.C,Q1*%
X93302500Y-28990000D02*
X94822500Y-28990000D01*
X93302500Y-29990000D02*
X93302500Y-28990000D01*
X93302500Y-32110000D02*
X93302500Y-31110000D01*
X94822500Y-28990000D02*
X94822500Y-29040000D01*
X94822500Y-30160000D02*
X94822500Y-30940000D01*
X94822500Y-32060000D02*
X94822500Y-32110000D01*
X94822500Y-32110000D02*
X93302500Y-32110000D01*
X95362500Y-30930000D02*
X95122500Y-30600000D01*
X95602500Y-30600000D01*
X95362500Y-30930000D01*
G36*
X95362500Y-30930000D02*
G01*
X95122500Y-30600000D01*
X95602500Y-30600000D01*
X95362500Y-30930000D01*
G37*
%TO.C,IC1*%
X68227500Y-70390000D02*
X70047500Y-70390000D01*
X68227500Y-70440000D02*
X68227500Y-70390000D01*
X68227500Y-73510000D02*
X68227500Y-73460000D01*
X70047500Y-70390000D02*
X70047500Y-70440000D01*
X70047500Y-73460000D02*
X70047500Y-73510000D01*
X70047500Y-73510000D02*
X68227500Y-73510000D01*
X70587500Y-73460000D02*
X70827500Y-73790000D01*
X70347500Y-73790000D01*
X70587500Y-73460000D01*
G36*
X70827500Y-73790000D02*
G01*
X70347500Y-73790000D01*
X70587500Y-73460000D01*
X70827500Y-73790000D01*
G37*
%TO.C,U1*%
X78952500Y-74490000D02*
X80772500Y-74490000D01*
X78952500Y-74540000D02*
X78952500Y-74490000D01*
X78952500Y-77610000D02*
X78952500Y-77560000D01*
X80772500Y-74490000D02*
X80772500Y-74540000D01*
X80772500Y-77560000D02*
X80772500Y-77610000D01*
X80772500Y-77610000D02*
X78952500Y-77610000D01*
X81312500Y-77560000D02*
X81552500Y-77890000D01*
X81072500Y-77890000D01*
X81312500Y-77560000D01*
G36*
X81552500Y-77890000D02*
G01*
X81072500Y-77890000D01*
X81312500Y-77560000D01*
X81552500Y-77890000D01*
G37*
%TO.C,C4*%
X55923752Y-41590000D02*
X54501248Y-41590000D01*
X55923752Y-43410000D02*
X54501248Y-43410000D01*
%TO.C,FB-0603-2A2*%
X49375279Y-46490000D02*
X49049721Y-46490000D01*
X49375279Y-47510000D02*
X49049721Y-47510000D01*
%TO.C,R1*%
X92262742Y-46477500D02*
X92737258Y-46477500D01*
X92262742Y-47522500D02*
X92737258Y-47522500D01*
%TO.C,GL850G1*%
X76790000Y-45240000D02*
X77315000Y-45240000D01*
X76790000Y-50760000D02*
X76790000Y-45240000D01*
X77315000Y-50760000D02*
X76790000Y-50760000D01*
X86685000Y-45240000D02*
X87210000Y-45240000D01*
X87210000Y-45240000D02*
X87210000Y-50760000D01*
X87210000Y-50760000D02*
X86685000Y-50760000D01*
X86690000Y-44500000D02*
X87160000Y-44160000D01*
X87160000Y-44840000D01*
X86690000Y-44500000D01*
G36*
X87160000Y-44840000D02*
G01*
X86690000Y-44500000D01*
X87160000Y-44160000D01*
X87160000Y-44840000D01*
G37*
%TO.C,L1*%
X77412000Y-70270000D02*
G75*
G02*
X77412000Y-67730000I508000J1270000D01*
G01*
X77935535Y-66980428D02*
G75*
G02*
X82746000Y-66714000I2524465J-2019572D01*
G01*
X82760068Y-71300068D02*
G75*
G02*
X77920000Y-71032000I-2300068J2300068D01*
G01*
X83508000Y-67730000D02*
G75*
G02*
X83508000Y-70270000I-508000J-1270000D01*
G01*
%TD*%
D12*
%TO.P,J2,SH,Shield_SH*%
%TO.N,PSELF*%
X39400000Y-34200000D03*
X39400000Y-22800000D03*
%TD*%
%TO.P,J4,SH,Shield_SH*%
%TO.N,PSELF*%
X39250000Y-68700000D03*
X39250000Y-57300000D03*
%TD*%
%TO.P,J5,SH,Shield_SH*%
%TO.N,PSELF*%
X39400000Y-84700000D03*
X39400000Y-73300000D03*
%TD*%
%TO.P,J3,SH,Shield_SH*%
%TO.N,PSELF*%
X39400000Y-52700000D03*
X39400000Y-41300000D03*
%TD*%
D13*
%TO.P,J1,SH,Shield_SH*%
%TO.N,PSELF*%
X98350000Y-74925000D03*
X86650000Y-74925000D03*
%TD*%
D14*
%TO.P,J6,1*%
%TO.N,Net-(F5-Pad1)*%
X114500000Y-43042500D03*
D15*
%TO.P,J6,2*%
%TO.N,PSELF*%
X108500000Y-43042500D03*
D16*
%TO.P,J6,3*%
%TO.N,N/C*%
X111500000Y-47742500D03*
%TD*%
D17*
%TO.P,L1,1*%
%TO.N,Net-(J1-VBUS)*%
X83000000Y-69000000D03*
%TO.P,L1,2*%
%TO.N,+5V*%
X77920000Y-69000000D03*
%TD*%
D18*
%TO.N,PSELF*%
X50975000Y-62525000D03*
X53737500Y-44762500D03*
X89000000Y-70100000D03*
X78000000Y-56500000D03*
X75000000Y-61500000D03*
X93000000Y-56500000D03*
X85000000Y-35500000D03*
X85000000Y-29000000D03*
X85500000Y-42000000D03*
X79000000Y-54000000D03*
X57000000Y-52500000D03*
X44500000Y-59500000D03*
X94500000Y-52000000D03*
X69000000Y-61500000D03*
X77775000Y-27725000D03*
%TO.N,DM4#*%
X46000000Y-29500000D03*
X60000000Y-28500000D03*
%TO.N,VCC*%
X99000000Y-27000000D03*
X67500000Y-51500000D03*
X66000000Y-72000000D03*
X101500000Y-27000000D03*
X91000000Y-28500000D03*
X66000000Y-65500000D03*
X92000000Y-45500000D03*
X66000000Y-59500000D03*
%TO.N,DM3#*%
X66500000Y-44500000D03*
X48000000Y-55500000D03*
%TO.N,DP3#*%
X57887500Y-52125000D03*
X70000000Y-40500000D03*
%TO.N,DM2#*%
X62000000Y-53900000D03*
X46000000Y-49500000D03*
%TO.N,DP2#*%
X45500000Y-46000000D03*
X63000000Y-52000000D03*
%TO.N,+5V*%
X53000000Y-81000000D03*
X72600000Y-66500000D03*
X61000000Y-64500000D03*
X58500000Y-27500000D03*
X59000000Y-56000000D03*
X80500000Y-29500000D03*
X74000000Y-21500000D03*
X71500000Y-75500000D03*
X69500000Y-23500000D03*
%TO.N,X1*%
X83000000Y-42500000D03*
X82500000Y-29000000D03*
%TO.N,X2*%
X81100000Y-32500000D03*
X82000000Y-42500000D03*
%TO.N,Net-(GL850G1-DVDD)*%
X77000000Y-56500000D03*
X78000000Y-54000000D03*
%TD*%
%TO.N,PSELF*%
D19*
X89500000Y-44000000D02*
X89500000Y-51000000D01*
X75000000Y-61500000D02*
X69000000Y-61500000D01*
X84000000Y-28000000D02*
X78050000Y-28000000D01*
X53500000Y-45000000D02*
X53500000Y-49000000D01*
X94500000Y-55500000D02*
X93500000Y-56500000D01*
X98350000Y-69850000D02*
X98350000Y-74925000D01*
X53500000Y-49000000D02*
X57000000Y-52500000D01*
X90000000Y-51500000D02*
X94000000Y-51500000D01*
X85500000Y-42000000D02*
X87500000Y-42000000D01*
X89500000Y-51000000D02*
X90000000Y-51500000D01*
X93500000Y-56500000D02*
X93000000Y-56500000D01*
X94500000Y-52000000D02*
X94500000Y-55500000D01*
X78000000Y-56500000D02*
X78000000Y-55000000D01*
X94000000Y-51500000D02*
X94500000Y-52000000D01*
X39400000Y-57150000D02*
X39250000Y-57300000D01*
X53737500Y-44762500D02*
X53500000Y-45000000D01*
X89000000Y-70100000D02*
X90600000Y-68500000D01*
X44500000Y-59500000D02*
X47525000Y-62525000D01*
X87500000Y-42000000D02*
X89500000Y-44000000D01*
X47525000Y-62525000D02*
X50975000Y-62525000D01*
X78050000Y-28000000D02*
X77775000Y-27725000D01*
X97000000Y-68500000D02*
X98350000Y-69850000D01*
X78000000Y-55000000D02*
X79000000Y-54000000D01*
X90600000Y-68500000D02*
X97000000Y-68500000D01*
X85000000Y-29000000D02*
X84000000Y-28000000D01*
X85000000Y-35500000D02*
X85000000Y-29000000D01*
%TO.N,DM4#*%
X60000000Y-28500000D02*
X47000000Y-28500000D01*
X47000000Y-28500000D02*
X46000000Y-29500000D01*
%TO.N,VCC*%
X101500000Y-27000000D02*
X99000000Y-27000000D01*
X66000000Y-72000000D02*
X66000000Y-65500000D01*
X66000000Y-54500000D02*
X67500000Y-53000000D01*
X67500000Y-53000000D02*
X67500000Y-51500000D01*
X92000000Y-45500000D02*
X90500000Y-44000000D01*
X66000000Y-59500000D02*
X66000000Y-54500000D01*
X90500000Y-29000000D02*
X91000000Y-28500000D01*
X90500000Y-44000000D02*
X90500000Y-29000000D01*
%TO.N,DM3#*%
X66500000Y-44500000D02*
X66500000Y-53000000D01*
X64500000Y-55000000D02*
X48500000Y-55000000D01*
X48500000Y-55000000D02*
X48000000Y-55500000D01*
X66500000Y-53000000D02*
X64500000Y-55000000D01*
%TO.N,DP3#*%
X57887500Y-52125000D02*
X58012500Y-52250000D01*
X64500000Y-36000000D02*
X65500000Y-35000000D01*
X63500000Y-53000000D02*
X64500000Y-52000000D01*
X65500000Y-35000000D02*
X70000000Y-35000000D01*
X70500000Y-40000000D02*
X70000000Y-40500000D01*
X58012500Y-52250000D02*
X58250000Y-52250000D01*
X70000000Y-35000000D02*
X70500000Y-35500000D01*
X59000000Y-53000000D02*
X63500000Y-53000000D01*
X70500000Y-35500000D02*
X70500000Y-40000000D01*
X58250000Y-52250000D02*
X59000000Y-53000000D01*
X64500000Y-52000000D02*
X64500000Y-36000000D01*
%TO.N,DM2#*%
X61900000Y-54000000D02*
X62000000Y-53900000D01*
X46000000Y-49500000D02*
X46000000Y-51500000D01*
X46000000Y-51500000D02*
X48400000Y-53900000D01*
X48400000Y-53900000D02*
X62000000Y-53900000D01*
%TO.N,DP2#*%
X47337500Y-44162500D02*
X45500000Y-46000000D01*
X61662500Y-44162500D02*
X47337500Y-44162500D01*
X63000000Y-45500000D02*
X61662500Y-44162500D01*
X63000000Y-52000000D02*
X63000000Y-45500000D01*
%TO.N,+5V*%
X72500000Y-66500000D02*
X72500000Y-74500000D01*
X55000000Y-78000000D02*
X53000000Y-80000000D01*
X72500000Y-74500000D02*
X71500000Y-75500000D01*
X61000000Y-56500000D02*
X60500000Y-56000000D01*
X70500000Y-64500000D02*
X72500000Y-66500000D01*
X58500000Y-25000000D02*
X58500000Y-27500000D01*
X61000000Y-64500000D02*
X70500000Y-64500000D01*
X74000000Y-28000000D02*
X74000000Y-21500000D01*
X69000000Y-78000000D02*
X55000000Y-78000000D01*
X61000000Y-64500000D02*
X61000000Y-56500000D01*
X69500000Y-23500000D02*
X60000000Y-23500000D01*
X60000000Y-23500000D02*
X58500000Y-25000000D01*
X53000000Y-80000000D02*
X53000000Y-81000000D01*
X74500000Y-28500000D02*
X74000000Y-28000000D01*
X80500000Y-29500000D02*
X79500000Y-28500000D01*
X79500000Y-28500000D02*
X74500000Y-28500000D01*
X60500000Y-56000000D02*
X59000000Y-56000000D01*
X71500000Y-75500000D02*
X69000000Y-78000000D01*
%TO.N,X1*%
X82500000Y-42000000D02*
X83000000Y-42500000D01*
X82500000Y-29000000D02*
X82500000Y-42000000D01*
%TO.N,X2*%
X81100000Y-32500000D02*
X81500000Y-32500000D01*
X81500000Y-32500000D02*
X82000000Y-33000000D01*
X82000000Y-33000000D02*
X82000000Y-42500000D01*
%TO.N,Net-(GL850G1-DVDD)*%
X77000000Y-56500000D02*
X77000000Y-55000000D01*
X77000000Y-55000000D02*
X78000000Y-54000000D01*
%TD*%
D20*
%TO.C,J2*%
X39400000Y-30800000D03*
X39400000Y-26200000D03*
D21*
X39400000Y-34200000D03*
X39400000Y-22800000D03*
%TD*%
D20*
%TO.C,J4*%
X39250000Y-65300000D03*
X39250000Y-60700000D03*
D21*
X39250000Y-68700000D03*
X39250000Y-57300000D03*
%TD*%
D20*
%TO.C,J5*%
X39400000Y-81300000D03*
X39400000Y-76700000D03*
D21*
X39400000Y-84700000D03*
X39400000Y-73300000D03*
%TD*%
D20*
%TO.C,J3*%
X39400000Y-49300000D03*
X39400000Y-44700000D03*
D21*
X39400000Y-52700000D03*
X39400000Y-41300000D03*
%TD*%
D20*
%TO.C,J1*%
X94750000Y-74925000D03*
X90250000Y-74925000D03*
D22*
X98350000Y-74925000D03*
X86650000Y-74925000D03*
%TD*%
D23*
%TO.C,J6*%
X114500000Y-43042500D03*
D24*
X108500000Y-43042500D03*
D25*
X111500000Y-47742500D03*
%TD*%
D26*
%TO.C,L1*%
X83000000Y-69000000D03*
X77920000Y-69000000D03*
%TD*%
D27*
X19500000Y-16500000D02*
X118000000Y-16500000D01*
X118000000Y-95000000D01*
X19500000Y-95000000D01*
X19500000Y-16500000D01*
D28*
%TO.P,R4,1*%
%TO.N,RESET#*%
X69675000Y-28000000D03*
%TO.P,R4,2*%
%TO.N,PSELF*%
X71325000Y-28000000D03*
%TD*%
D29*
%TO.P,C21,1*%
%TO.N,Net-(GL850G1-AVDD@2)*%
X79450000Y-34000000D03*
%TO.P,C21,2*%
%TO.N,GNDREF*%
X81000000Y-34000000D03*
%TD*%
D30*
%TO.P,J2,1,VBUS_1*%
%TO.N,Net-(J2-VBUS)*%
X42150000Y-32000000D03*
%TO.P,J2,2,D-_2*%
%TO.N,DM4#*%
X42150000Y-29500000D03*
%TO.P,J2,3,D+_3*%
%TO.N,DP4#*%
X42150000Y-27500000D03*
%TO.P,J2,4,GND_4*%
%TO.N,PSELF*%
X42150000Y-25000000D03*
D12*
%TO.P,J2,SH,Shield_SH*%
X39400000Y-34200000D03*
X39400000Y-22800000D03*
%TD*%
D31*
%TO.P,R8,1*%
%TO.N,PSELF*%
X102825000Y-31500000D03*
%TO.P,R8,2*%
%TO.N,VCC*%
X101175000Y-31500000D03*
%TD*%
D32*
%TO.P,U2,1,IO1_1*%
%TO.N,DP4#*%
X68587500Y-38412500D03*
%TO.P,U2,2,VN_2*%
%TO.N,GND1*%
X67637500Y-38412500D03*
%TO.P,U2,3,IO2_3*%
%TO.N,DM4#*%
X66687500Y-38412500D03*
%TO.P,U2,4,IO3_4*%
%TO.N,DM3#*%
X66687500Y-40687500D03*
%TO.P,U2,5,VP_5*%
%TO.N,VCC*%
X67637500Y-40687500D03*
%TO.P,U2,6,IO4_6*%
%TO.N,DP3#*%
X68587500Y-40687500D03*
%TD*%
D33*
%TO.P,C2,1*%
%TO.N,Net-(C2-Pad1)*%
X47237500Y-35000000D03*
%TO.P,C2,2*%
%TO.N,PSELF*%
X50187500Y-35000000D03*
%TD*%
D30*
%TO.P,J4,1,VBUS_1*%
%TO.N,Net-(J4-VBUS)*%
X42000000Y-66500000D03*
%TO.P,J4,2,D-_2*%
%TO.N,DM3#*%
X42000000Y-64000000D03*
%TO.P,J4,3,D+_3*%
%TO.N,DP3#*%
X42000000Y-62000000D03*
%TO.P,J4,4,GND_4*%
%TO.N,PSELF*%
X42000000Y-59500000D03*
D12*
%TO.P,J4,SH,Shield_SH*%
X39250000Y-68700000D03*
X39250000Y-57300000D03*
%TD*%
D34*
%TO.P,C8,1*%
%TO.N,Net-(C3-Pad2)*%
X57275000Y-75500000D03*
%TO.P,C8,2*%
%TO.N,Net-(J5-VBUS)*%
X55725000Y-75500000D03*
%TD*%
D29*
%TO.P,c9,1*%
%TO.N,RESET#*%
X76225000Y-23500000D03*
%TO.P,c9,2*%
%TO.N,PSELF*%
X77775000Y-23500000D03*
%TD*%
D35*
%TO.P,C15,1*%
%TO.N,Net-(GL850G1-AVDD@1)*%
X87725000Y-39275000D03*
%TO.P,C15,2*%
%TO.N,GNDREF*%
X87725000Y-37725000D03*
%TD*%
D30*
%TO.P,J5,1,VBUS_1*%
%TO.N,Net-(J5-VBUS)*%
X42150000Y-82500000D03*
%TO.P,J5,2,D-_2*%
%TO.N,DM1#*%
X42150000Y-80000000D03*
%TO.P,J5,3,D+_3*%
%TO.N,DP1#*%
X42150000Y-78000000D03*
%TO.P,J5,4,GND_4*%
%TO.N,PSELF*%
X42150000Y-75500000D03*
D12*
%TO.P,J5,SH,Shield_SH*%
X39400000Y-84700000D03*
X39400000Y-73300000D03*
%TD*%
D30*
%TO.P,J3,1,VBUS_1*%
%TO.N,Net-(J3-VBUS)*%
X42150000Y-50500000D03*
%TO.P,J3,2,D-_2*%
%TO.N,DM2#*%
X42150000Y-48000000D03*
%TO.P,J3,3,D+_3*%
%TO.N,DP2#*%
X42150000Y-46000000D03*
%TO.P,J3,4,GND_4*%
%TO.N,PSELF*%
X42150000Y-43500000D03*
D12*
%TO.P,J3,SH,Shield_SH*%
X39400000Y-52700000D03*
X39400000Y-41300000D03*
%TD*%
D35*
%TO.P,C17,1*%
%TO.N,Net-(GL850G1-AVDD@3)*%
X76225000Y-37050000D03*
%TO.P,C17,2*%
%TO.N,GNDREF*%
X76225000Y-35500000D03*
%TD*%
D36*
%TO.P,F1,1*%
%TO.N,+5V*%
X58400000Y-64500000D03*
%TO.P,F1,2*%
%TO.N,Net-(C1-Pad1)*%
X55600000Y-64500000D03*
%TD*%
%TO.P,F2,1*%
%TO.N,+5V*%
X51400000Y-82000000D03*
%TO.P,F2,2*%
%TO.N,Net-(C3-Pad1)*%
X48600000Y-82000000D03*
%TD*%
%TO.P,F3,1*%
%TO.N,+5V*%
X58612500Y-47500000D03*
%TO.P,F3,2*%
%TO.N,Net-(C4-Pad1)*%
X55812500Y-47500000D03*
%TD*%
D34*
%TO.P,C6,1*%
%TO.N,PSELF*%
X49487500Y-25500000D03*
%TO.P,C6,2*%
%TO.N,Net-(J2-VBUS)*%
X47937500Y-25500000D03*
%TD*%
D33*
%TO.P,C1,1*%
%TO.N,Net-(C1-Pad1)*%
X48025000Y-64500000D03*
%TO.P,C1,2*%
%TO.N,PSELF*%
X50975000Y-64500000D03*
%TD*%
D34*
%TO.P,C5,1*%
%TO.N,PSELF*%
X57275000Y-58500000D03*
%TO.P,C5,2*%
%TO.N,Net-(J4-VBUS)*%
X55725000Y-58500000D03*
%TD*%
D36*
%TO.P,F4,1*%
%TO.N,+5V*%
X58112500Y-30500000D03*
%TO.P,F4,2*%
%TO.N,Net-(C2-Pad1)*%
X55312500Y-30500000D03*
%TD*%
D31*
%TO.P,R9,1*%
%TO.N,PSELF*%
X85050000Y-39000000D03*
%TO.P,R9,2*%
%TO.N,Net-(GL850G1-RREF)*%
X83400000Y-39000000D03*
%TD*%
D37*
%TO.P,C16,1*%
%TO.N,Net-(GL850G1-3V3)*%
X91000000Y-53437500D03*
%TO.P,C16,2*%
%TO.N,PSELF*%
X91000000Y-56562500D03*
%TD*%
D29*
%TO.P,C14,1*%
%TO.N,PSELF*%
X85725000Y-58500000D03*
%TO.P,C14,2*%
%TO.N,AVDD*%
X87275000Y-58500000D03*
%TD*%
D34*
%TO.P,C12,1*%
%TO.N,PSELF*%
X87775000Y-24000000D03*
%TO.P,C12,2*%
%TO.N,X1*%
X86225000Y-24000000D03*
%TD*%
%TO.P,C7,1*%
%TO.N,PSELF*%
X49987500Y-42500000D03*
%TO.P,C7,2*%
%TO.N,Net-(J3-VBUS)*%
X48437500Y-42500000D03*
%TD*%
D38*
%TO.P,Y1,1,1_1*%
%TO.N,X1*%
X82500000Y-25450000D03*
%TO.P,Y1,2,2_2*%
%TO.N,X2*%
X82500000Y-23250000D03*
%TO.P,Y1,3*%
%TO.N,N/C*%
X80800000Y-23250000D03*
%TO.P,Y1,4*%
X80800000Y-25450000D03*
%TD*%
D39*
%TO.P,LED1,1,K_1*%
%TO.N,PGANG*%
X94712500Y-39287500D03*
%TO.P,LED1,2,A_2*%
%TO.N,Net-(LED1-A)*%
X96287500Y-39287500D03*
%TD*%
D29*
%TO.P,C10,1*%
%TO.N,VCC*%
X94225000Y-24000000D03*
%TO.P,C10,2*%
%TO.N,PSELF*%
X95775000Y-24000000D03*
%TD*%
D34*
%TO.P,C13,1*%
%TO.N,PSELF*%
X91775000Y-24000000D03*
%TO.P,C13,2*%
%TO.N,X2*%
X90225000Y-24000000D03*
%TD*%
D29*
%TO.P,C18,1*%
%TO.N,Net-(GL850G1-DVDD)*%
X73725000Y-58500000D03*
%TO.P,C18,2*%
%TO.N,PSELF*%
X75275000Y-58500000D03*
%TD*%
D40*
%TO.P,C11,1*%
%TO.N,VCC*%
X98550000Y-24000000D03*
%TO.P,C11,2*%
%TO.N,PSELF*%
X100450000Y-24000000D03*
%TD*%
D31*
%TO.P,R5,1*%
%TO.N,DVDD*%
X93325000Y-42500000D03*
%TO.P,R5,2*%
%TO.N,PGANG*%
X91675000Y-42500000D03*
%TD*%
D41*
%TO.P,J1,1,VBUS_1*%
%TO.N,Net-(J1-VBUS)*%
X96000000Y-72325000D03*
%TO.P,J1,2,D-_2*%
%TO.N,DMO*%
X93500000Y-72325000D03*
%TO.P,J1,3,D+_3*%
%TO.N,DPO*%
X91500000Y-72325000D03*
%TO.P,J1,4,GND_4*%
%TO.N,PSELF*%
X89000000Y-72325000D03*
D13*
%TO.P,J1,SH,Shield_SH*%
X98350000Y-74925000D03*
X86650000Y-74925000D03*
%TD*%
D29*
%TO.P,C22,1*%
%TO.N,Net-(GL850G1-AVDD@2)*%
X79450000Y-39000000D03*
%TO.P,C22,2*%
%TO.N,GNDREF*%
X81000000Y-39000000D03*
%TD*%
D28*
%TO.P,R6,1*%
%TO.N,DVDD*%
X97175000Y-42500000D03*
%TO.P,R6,2*%
%TO.N,Net-(LED1-A)*%
X98825000Y-42500000D03*
%TD*%
D34*
%TO.P,C20,1*%
%TO.N,VCC*%
X83275000Y-58500000D03*
%TO.P,C20,2*%
%TO.N,PSELF*%
X81725000Y-58500000D03*
%TD*%
D14*
%TO.P,J6,1*%
%TO.N,Net-(F5-Pad1)*%
X114500000Y-43042500D03*
D15*
%TO.P,J6,2*%
%TO.N,PSELF*%
X108500000Y-43042500D03*
D16*
%TO.P,J6,3*%
%TO.N,N/C*%
X111500000Y-47742500D03*
%TD*%
D28*
%TO.P,R3,1*%
%TO.N,+5V*%
X71175000Y-23490000D03*
%TO.P,R3,2*%
%TO.N,RESET#*%
X72825000Y-23490000D03*
%TD*%
D36*
%TO.P,F5,1*%
%TO.N,Net-(F5-Pad1)*%
X105400000Y-24000000D03*
%TO.P,F5,2*%
%TO.N,VCC*%
X102600000Y-24000000D03*
%TD*%
D28*
%TO.P,R2,1*%
%TO.N,OVCURR1#*%
X96175000Y-47000000D03*
%TO.P,R2,2*%
%TO.N,PSELF*%
X97825000Y-47000000D03*
%TD*%
D42*
%TO.P,L2,1,1_1*%
%TO.N,Net-(C1-Pad1)*%
X49787500Y-58500000D03*
%TO.P,L2,2,2_2*%
%TO.N,Net-(J4-VBUS)*%
X48212500Y-58500000D03*
%TD*%
D28*
%TO.P,R7,1*%
%TO.N,Net-(Q1-G)*%
X97675000Y-31500000D03*
%TO.P,R7,2*%
%TO.N,PSELF*%
X99325000Y-31500000D03*
%TD*%
D42*
%TO.P,FB-0603-2A1,1,1_1*%
%TO.N,Net-(C3-Pad1)*%
X50287500Y-75500000D03*
%TO.P,FB-0603-2A1,2,2_2*%
%TO.N,Net-(J5-VBUS)*%
X48712500Y-75500000D03*
%TD*%
%TO.P,L3,1,1_1*%
%TO.N,Net-(C2-Pad1)*%
X49500000Y-30500000D03*
%TO.P,L3,2,2_2*%
%TO.N,Net-(J2-VBUS)*%
X47925000Y-30500000D03*
%TD*%
D34*
%TO.P,C19,1*%
%TO.N,VCC*%
X79275000Y-58500000D03*
%TO.P,C19,2*%
%TO.N,PSELF*%
X77725000Y-58500000D03*
%TD*%
D43*
%TO.P,L4,1,1_1*%
%TO.N,Net-(GL850G1-3V3)*%
X90500000Y-58925000D03*
%TO.P,L4,2,2_2*%
%TO.N,AVDD*%
X90500000Y-60500000D03*
%TD*%
D33*
%TO.P,C3,1*%
%TO.N,Net-(C3-Pad1)*%
X55025000Y-81000000D03*
%TO.P,C3,2*%
%TO.N,Net-(C3-Pad2)*%
X57975000Y-81000000D03*
%TD*%
D44*
%TO.P,Q1,1,G_1*%
%TO.N,Net-(Q1-G)*%
X95000000Y-31500000D03*
%TO.P,Q1,2,S_2*%
%TO.N,VCC*%
X95000000Y-29600000D03*
%TO.P,Q1,3,D_3*%
%TO.N,+5V*%
X93125000Y-30550000D03*
%TD*%
D45*
%TO.P,IC1,1,IO1_1*%
%TO.N,DP2#*%
X70275000Y-72900000D03*
%TO.P,IC1,2,VN_2*%
%TO.N,PSELF*%
X70275000Y-71950000D03*
%TO.P,IC1,3,IO2_3*%
%TO.N,DM2#*%
X70275000Y-71000000D03*
%TO.P,IC1,4,IO3_4*%
%TO.N,DP1#*%
X68000000Y-71000000D03*
%TO.P,IC1,5,VP_5*%
%TO.N,VCC*%
X68000000Y-71950000D03*
%TO.P,IC1,6,IO4_6*%
%TO.N,DM1#*%
X68000000Y-72900000D03*
%TD*%
%TO.P,U1,1,IO1_1*%
%TO.N,DPO*%
X81000000Y-77000000D03*
%TO.P,U1,2,VN_2*%
%TO.N,PSELF*%
X81000000Y-76050000D03*
%TO.P,U1,3,IO2_3*%
%TO.N,DMO*%
X81000000Y-75100000D03*
%TO.P,U1,4,IO3_4*%
%TO.N,unconnected-(U1-IO3-Pad4)*%
X78725000Y-75100000D03*
%TO.P,U1,5,VP_5*%
%TO.N,+5V*%
X78725000Y-76050000D03*
%TO.P,U1,6,IO4_6*%
%TO.N,unconnected-(U1-IO4-Pad6)*%
X78725000Y-77000000D03*
%TD*%
D46*
%TO.P,C4,1*%
%TO.N,Net-(C4-Pad1)*%
X56687500Y-42500000D03*
%TO.P,C4,2*%
%TO.N,PSELF*%
X53737500Y-42500000D03*
%TD*%
D42*
%TO.P,FB-0603-2A2,1,1_1*%
%TO.N,Net-(C4-Pad1)*%
X50000000Y-47000000D03*
%TO.P,FB-0603-2A2,2,2_2*%
%TO.N,Net-(J3-VBUS)*%
X48425000Y-47000000D03*
%TD*%
D28*
%TO.P,R1,1*%
%TO.N,VCC*%
X91675000Y-47000000D03*
%TO.P,R1,2*%
%TO.N,OVCURR1#*%
X93325000Y-47000000D03*
%TD*%
D47*
%TO.P,GL850G1,1,AVDD@1_1*%
%TO.N,Net-(GL850G1-AVDD@1)*%
X86225000Y-44500000D03*
%TO.P,GL850G1,2,DM2_2*%
%TO.N,/DM2*%
X85575000Y-44500000D03*
%TO.P,GL850G1,3,DP2_3*%
%TO.N,/DP2*%
X84925000Y-44500000D03*
%TO.P,GL850G1,4,RREF_4*%
%TO.N,Net-(GL850G1-RREF)*%
X84275000Y-44500000D03*
%TO.P,GL850G1,5,AVDD@2_5*%
%TO.N,Net-(GL850G1-AVDD@2)*%
X83625000Y-44500000D03*
%TO.P,GL850G1,6,X1_6*%
%TO.N,X1*%
X82975000Y-44500000D03*
%TO.P,GL850G1,7,X2_7*%
%TO.N,X2*%
X82325000Y-44500000D03*
%TO.P,GL850G1,8,DM3_8*%
%TO.N,/DM3*%
X81675000Y-44500000D03*
%TO.P,GL850G1,9,DP3_9*%
%TO.N,/DP3*%
X81025000Y-44500000D03*
%TO.P,GL850G1,10,AVDD@3_10*%
%TO.N,Net-(GL850G1-AVDD@3)*%
X80375000Y-44500000D03*
%TO.P,GL850G1,11,DM4_11*%
%TO.N,/DM4*%
X79725000Y-44500000D03*
%TO.P,GL850G1,12,DP4_12*%
%TO.N,/DP4*%
X79075000Y-44500000D03*
%TO.P,GL850G1,13,~{RESET}_13*%
%TO.N,/RESET*%
X78425000Y-44500000D03*
%TO.P,GL850G1,14,TEST_14*%
%TO.N,unconnected-(GL850G1-TEST-Pad14)*%
X77775000Y-44500000D03*
%TO.P,GL850G1,15,GND_15*%
%TO.N,unconnected-(GL850G1-GND-Pad15)*%
X77775000Y-51500000D03*
%TO.P,GL850G1,16,DVDD_16*%
%TO.N,Net-(GL850G1-DVDD)*%
X78425000Y-51500000D03*
%TO.P,GL850G1,17,PSELF_17*%
%TO.N,PSELF*%
X79075000Y-51500000D03*
%TO.P,GL850G1,18,PGANG_18*%
%TO.N,PGANG*%
X79725000Y-51500000D03*
%TO.P,GL850G1,19,~{OVCUR2}_19*%
%TO.N,unconnected-(GL850G1-~{OVCUR2}-Pad19)*%
X80375000Y-51500000D03*
%TO.P,GL850G1,20,PWREN2_20*%
%TO.N,unconnected-(GL850G1-PWREN2-Pad20)*%
X81025000Y-51500000D03*
%TO.P,GL850G1,21,~{OVCUR1}_21*%
%TO.N,/OVCUR1*%
X81675000Y-51500000D03*
%TO.P,GL850G1,22,PWREN1_22*%
%TO.N,unconnected-(GL850G1-PWREN1-Pad22)*%
X82325000Y-51500000D03*
%TO.P,GL850G1,23,5V_23*%
%TO.N,VCC*%
X82975000Y-51500000D03*
%TO.P,GL850G1,24,3V3_24*%
%TO.N,Net-(GL850G1-3V3)*%
X83625000Y-51500000D03*
%TO.P,GL850G1,25,DM0_25*%
%TO.N,/DM0*%
X84275000Y-51500000D03*
%TO.P,GL850G1,26,DP0_26*%
%TO.N,/DP0*%
X84925000Y-51500000D03*
%TO.P,GL850G1,27,DM1_27*%
%TO.N,/DM1*%
X85575000Y-51500000D03*
%TO.P,GL850G1,28,DP1_28*%
%TO.N,/DP1*%
X86225000Y-51500000D03*
%TD*%
D17*
%TO.P,L1,1*%
%TO.N,Net-(J1-VBUS)*%
X83000000Y-69000000D03*
%TO.P,L1,2*%
%TO.N,+5V*%
X77920000Y-69000000D03*
%TD*%
D18*
%TO.N,PSELF*%
X50975000Y-62525000D03*
X53737500Y-44762500D03*
X89000000Y-70100000D03*
X78000000Y-56500000D03*
X75000000Y-61500000D03*
X93000000Y-56500000D03*
X85000000Y-35500000D03*
X85000000Y-29000000D03*
X85500000Y-42000000D03*
X79000000Y-54000000D03*
X57000000Y-52500000D03*
X44500000Y-59500000D03*
X94500000Y-52000000D03*
X69000000Y-61500000D03*
X77775000Y-27725000D03*
%TO.N,DM4#*%
X46000000Y-29500000D03*
X60000000Y-28500000D03*
%TO.N,VCC*%
X99000000Y-27000000D03*
X67500000Y-51500000D03*
X66000000Y-72000000D03*
X101500000Y-27000000D03*
X91000000Y-28500000D03*
X66000000Y-65500000D03*
X92000000Y-45500000D03*
X66000000Y-59500000D03*
%TO.N,DM3#*%
X66500000Y-44500000D03*
X48000000Y-55500000D03*
%TO.N,DP3#*%
X57887500Y-52125000D03*
X70000000Y-40500000D03*
%TO.N,DM2#*%
X62000000Y-53900000D03*
X46000000Y-49500000D03*
%TO.N,DP2#*%
X45500000Y-46000000D03*
X63000000Y-52000000D03*
%TO.N,+5V*%
X53000000Y-81000000D03*
X72600000Y-66500000D03*
X61000000Y-64500000D03*
X58500000Y-27500000D03*
X59000000Y-56000000D03*
X80500000Y-29500000D03*
X74000000Y-21500000D03*
X71500000Y-75500000D03*
X69500000Y-23500000D03*
%TO.N,X1*%
X83000000Y-42500000D03*
X82500000Y-29000000D03*
%TO.N,X2*%
X81100000Y-32500000D03*
X82000000Y-42500000D03*
%TO.N,Net-(GL850G1-DVDD)*%
X77000000Y-56500000D03*
X78000000Y-54000000D03*
%TD*%
%TO.N,RESET#*%
D19*
X69675000Y-28000000D02*
X69675000Y-26325000D01*
X72510000Y-23490000D02*
X72825000Y-23490000D01*
X76215000Y-23490000D02*
X76225000Y-23500000D01*
X72825000Y-23490000D02*
X76215000Y-23490000D01*
X69675000Y-26325000D02*
X72510000Y-23490000D01*
%TO.N,PSELF*%
X77725000Y-60725000D02*
X78000000Y-61000000D01*
X49987500Y-39000000D02*
X49987500Y-35200000D01*
X95000000Y-22000000D02*
X95775000Y-22775000D01*
X57275000Y-58500000D02*
X57275000Y-59725000D01*
X50187500Y-35000000D02*
X55712500Y-35000000D01*
X55712500Y-35000000D02*
X56712500Y-34000000D01*
X81725000Y-58500000D02*
X81725000Y-60775000D01*
X42150000Y-75500000D02*
X39950000Y-73300000D01*
X85725000Y-60275000D02*
X85000000Y-61000000D01*
X100450000Y-24000000D02*
X100450000Y-29550000D01*
X99325000Y-30675000D02*
X99325000Y-31500000D01*
X66500000Y-58500000D02*
X57275000Y-58500000D01*
X42000000Y-59500000D02*
X44500000Y-59500000D01*
X85050000Y-39000000D02*
X85050000Y-41550000D01*
X85000000Y-28050000D02*
X85000000Y-29000000D01*
X91775000Y-24000000D02*
X91775000Y-22725000D01*
X39950000Y-73300000D02*
X39400000Y-73300000D01*
X50975000Y-62525000D02*
X50975000Y-64500000D01*
X69000000Y-61500000D02*
X69000000Y-61000000D01*
X38500000Y-83800000D02*
X38500000Y-74200000D01*
X39400000Y-57150000D02*
X39250000Y-57300000D01*
X79000000Y-54000000D02*
X79075000Y-53925000D01*
X85050000Y-39000000D02*
X85000000Y-38950000D01*
X42150000Y-40350000D02*
X43500000Y-39000000D01*
X81725000Y-60775000D02*
X81500000Y-61000000D01*
X79500000Y-74000000D02*
X70071948Y-74000000D01*
X39400000Y-34200000D02*
X39400000Y-41300000D01*
X43000000Y-22500000D02*
X43000000Y-24150000D01*
X89000000Y-72325000D02*
X89000000Y-70100000D01*
X49500000Y-22500000D02*
X49000000Y-22000000D01*
X69000000Y-72928052D02*
X69000000Y-72400000D01*
X87775000Y-25275000D02*
X87775000Y-24000000D01*
X99000000Y-51000000D02*
X98000000Y-52000000D01*
X39950000Y-22800000D02*
X39400000Y-22800000D01*
X57275000Y-59725000D02*
X56000000Y-61000000D01*
X69450000Y-71950000D02*
X69000000Y-71500000D01*
X100450000Y-24000000D02*
X100450000Y-22450000D01*
X75275000Y-58500000D02*
X77725000Y-58500000D01*
X100450000Y-22450000D02*
X100000000Y-22000000D01*
X39400000Y-73300000D02*
X39400000Y-68850000D01*
X75275000Y-61225000D02*
X75000000Y-61500000D01*
X81000000Y-76050000D02*
X85525000Y-76050000D01*
X88000000Y-26500000D02*
X86550000Y-26500000D01*
X98500000Y-47000000D02*
X99000000Y-47500000D01*
X91062500Y-56500000D02*
X91000000Y-56562500D01*
X49000000Y-22000000D02*
X43500000Y-22000000D01*
X100000000Y-33500000D02*
X99325000Y-32825000D01*
X42150000Y-25000000D02*
X39950000Y-22800000D01*
X91775000Y-24000000D02*
X91775000Y-25725000D01*
X56000000Y-61000000D02*
X52500000Y-61000000D01*
X55712500Y-25500000D02*
X49487500Y-25500000D01*
X38000000Y-59500000D02*
X37500000Y-60000000D01*
X102825000Y-33175000D02*
X102500000Y-33500000D01*
X107500000Y-51000000D02*
X99000000Y-51000000D01*
X99325000Y-32825000D02*
X99325000Y-31500000D01*
X85525000Y-76050000D02*
X86650000Y-74925000D01*
X99000000Y-47500000D02*
X99000000Y-51000000D01*
X57275000Y-58500000D02*
X57275000Y-52775000D01*
X91775000Y-25725000D02*
X91500000Y-26000000D01*
X98000000Y-52000000D02*
X94500000Y-52000000D01*
X75275000Y-58500000D02*
X75275000Y-61225000D01*
X85000000Y-38950000D02*
X85000000Y-35500000D01*
X43500000Y-39000000D02*
X49987500Y-39000000D01*
X39400000Y-84700000D02*
X38500000Y-83800000D01*
X91775000Y-22725000D02*
X92500000Y-22000000D01*
X77500000Y-28000000D02*
X71325000Y-28000000D01*
X86937500Y-56562500D02*
X85725000Y-57775000D01*
X89000000Y-72325000D02*
X86650000Y-74675000D01*
X38500000Y-74200000D02*
X39400000Y-73300000D01*
X88500000Y-26000000D02*
X88000000Y-26500000D01*
X108500000Y-43042500D02*
X108500000Y-50000000D01*
X79075000Y-53925000D02*
X79075000Y-51500000D01*
X86650000Y-74675000D02*
X86650000Y-74925000D01*
X49487500Y-25500000D02*
X49487500Y-22512500D01*
X77725000Y-58500000D02*
X77725000Y-60725000D01*
X85050000Y-41550000D02*
X85500000Y-42000000D01*
X69000000Y-71500000D02*
X69000000Y-61500000D01*
X77725000Y-56775000D02*
X78000000Y-56500000D01*
X69000000Y-61000000D02*
X66500000Y-58500000D01*
X80000000Y-74500000D02*
X79500000Y-74000000D01*
X43500000Y-22000000D02*
X43000000Y-22500000D01*
X69000000Y-72400000D02*
X69450000Y-71950000D01*
X49987500Y-42500000D02*
X53737500Y-42500000D01*
X88500000Y-26000000D02*
X87775000Y-25275000D01*
X56712500Y-34000000D02*
X56712500Y-26500000D01*
X39400000Y-41300000D02*
X39950000Y-41300000D01*
X49487500Y-22512500D02*
X49500000Y-22500000D01*
X91500000Y-26000000D02*
X88500000Y-26000000D01*
X85725000Y-57775000D02*
X85725000Y-58500000D01*
X81500000Y-61000000D02*
X81000000Y-61000000D01*
X96550000Y-22000000D02*
X95775000Y-22775000D01*
X49987500Y-42500000D02*
X49987500Y-39000000D01*
X42000000Y-59500000D02*
X38000000Y-59500000D01*
X92500000Y-22000000D02*
X95000000Y-22000000D01*
X77725000Y-58500000D02*
X77725000Y-56775000D01*
X85725000Y-58500000D02*
X85725000Y-60275000D01*
X80000000Y-75712499D02*
X80000000Y-74500000D01*
X77775000Y-27725000D02*
X77500000Y-28000000D01*
X100450000Y-29550000D02*
X99325000Y-30675000D01*
X85000000Y-61000000D02*
X81500000Y-61000000D01*
X93000000Y-56500000D02*
X91062500Y-56500000D01*
X39400000Y-68850000D02*
X39250000Y-68700000D01*
X52500000Y-61000000D02*
X50975000Y-62525000D01*
X97825000Y-47000000D02*
X98500000Y-47000000D01*
X39400000Y-52700000D02*
X39400000Y-57150000D01*
X77775000Y-23500000D02*
X77775000Y-27725000D01*
X81000000Y-76050000D02*
X80337501Y-76050000D01*
X91000000Y-56562500D02*
X86937500Y-56562500D01*
X69450000Y-71950000D02*
X70275000Y-71950000D01*
X49987500Y-35200000D02*
X50187500Y-35000000D01*
X108500000Y-50000000D02*
X107500000Y-51000000D01*
X39800000Y-57300000D02*
X42000000Y-59500000D01*
X39950000Y-41300000D02*
X42150000Y-43500000D01*
X53737500Y-44762500D02*
X53737500Y-42500000D01*
X102825000Y-31500000D02*
X102825000Y-33175000D01*
X102500000Y-33500000D02*
X100000000Y-33500000D01*
X37500000Y-66950000D02*
X39250000Y-68700000D01*
X37500000Y-60000000D02*
X37500000Y-66950000D01*
X70071948Y-74000000D02*
X69000000Y-72928052D01*
X57275000Y-52775000D02*
X57000000Y-52500000D01*
X86550000Y-26500000D02*
X85000000Y-28050000D01*
X43000000Y-24150000D02*
X42150000Y-25000000D01*
X80337501Y-76050000D02*
X80000000Y-75712499D01*
X56712500Y-26500000D02*
X55712500Y-25500000D01*
X95775000Y-22775000D02*
X95775000Y-24000000D01*
X78000000Y-61000000D02*
X81000000Y-61000000D01*
X39250000Y-57300000D02*
X39800000Y-57300000D01*
X100000000Y-22000000D02*
X96550000Y-22000000D01*
X42150000Y-43500000D02*
X42150000Y-40350000D01*
X81000000Y-76050000D02*
X81050000Y-76000000D01*
%TO.N,Net-(GL850G1-AVDD@2)*%
X79450000Y-40950000D02*
X79450000Y-39000000D01*
X83625000Y-44500000D02*
X83625000Y-42125000D01*
X83000000Y-41500000D02*
X80000000Y-41500000D01*
X80000000Y-41500000D02*
X79450000Y-40950000D01*
X79450000Y-34000000D02*
X79450000Y-39000000D01*
X83625000Y-42125000D02*
X83000000Y-41500000D01*
%TO.N,GNDREF*%
X77500000Y-32000000D02*
X79500000Y-32000000D01*
X81000000Y-34000000D02*
X81000000Y-39000000D01*
X87725000Y-37725000D02*
X87725000Y-36225000D01*
X79500000Y-32000000D02*
X81000000Y-33500000D01*
X76225000Y-35500000D02*
X76225000Y-33275000D01*
X85500000Y-34000000D02*
X81000000Y-34000000D01*
X87725000Y-36225000D02*
X85500000Y-34000000D01*
X76225000Y-33275000D02*
X77500000Y-32000000D01*
X81000000Y-33500000D02*
X81000000Y-34000000D01*
%TO.N,Net-(J2-VBUS)*%
X46425000Y-32000000D02*
X47925000Y-30500000D01*
X42150000Y-32000000D02*
X46425000Y-32000000D01*
X47925000Y-30500000D02*
X47925000Y-25512500D01*
X47925000Y-25512500D02*
X47937500Y-25500000D01*
%TO.N,DM4#*%
X66687500Y-29187500D02*
X66000000Y-28500000D01*
X46000000Y-29500000D02*
X42150000Y-29500000D01*
X66687500Y-38412500D02*
X66687500Y-29187500D01*
X66000000Y-28500000D02*
X60000000Y-28500000D01*
%TO.N,DP4#*%
X35500000Y-19000000D02*
X64000000Y-19000000D01*
X68587500Y-20087500D02*
X67500000Y-19000000D01*
X34500000Y-20000000D02*
X35500000Y-19000000D01*
X42150000Y-27500000D02*
X35000000Y-27500000D01*
X68587500Y-38412500D02*
X68587500Y-20087500D01*
X34500000Y-27000000D02*
X34500000Y-20000000D01*
X67500000Y-19000000D02*
X64000000Y-19000000D01*
X35000000Y-27500000D02*
X34500000Y-27000000D01*
%TO.N,VCC*%
X82975000Y-55025000D02*
X82500000Y-55500000D01*
X98550000Y-25450000D02*
X98000000Y-26000000D01*
X79275000Y-55725000D02*
X79500000Y-55500000D01*
X83275000Y-56275000D02*
X82500000Y-55500000D01*
X98000000Y-26000000D02*
X94225000Y-26000000D01*
X72500000Y-53934314D02*
X71165686Y-52600000D01*
X94225000Y-28825000D02*
X95000000Y-29600000D01*
X99000000Y-27000000D02*
X98000000Y-26000000D01*
X91675000Y-45825000D02*
X92000000Y-45500000D01*
X72500000Y-55000000D02*
X73000000Y-55500000D01*
X94225000Y-26000000D02*
X94225000Y-28500000D01*
X94225000Y-28500000D02*
X91000000Y-28500000D01*
X79275000Y-58500000D02*
X79275000Y-55725000D01*
X85000000Y-47000000D02*
X82975000Y-49025000D01*
X94225000Y-24000000D02*
X94225000Y-26000000D01*
X68600000Y-52600000D02*
X67500000Y-51500000D01*
X72500000Y-53934314D02*
X72500000Y-55000000D01*
X67637500Y-51362500D02*
X67500000Y-51500000D01*
X101175000Y-27325000D02*
X101500000Y-27000000D01*
X101175000Y-31500000D02*
X101175000Y-27325000D01*
X66000000Y-65500000D02*
X66000000Y-59500000D01*
X83275000Y-58500000D02*
X83275000Y-56275000D01*
X98550000Y-24000000D02*
X98550000Y-25450000D01*
X94225000Y-28500000D02*
X94225000Y-28825000D01*
X73000000Y-55500000D02*
X79500000Y-55500000D01*
X71165686Y-52600000D02*
X68600000Y-52600000D01*
X102600000Y-26400000D02*
X102000000Y-27000000D01*
X91675000Y-47000000D02*
X85000000Y-47000000D01*
X68000000Y-71950000D02*
X66050000Y-71950000D01*
X66050000Y-71950000D02*
X66000000Y-72000000D01*
X82975000Y-49025000D02*
X82975000Y-51500000D01*
X79500000Y-55500000D02*
X82500000Y-55500000D01*
X82975000Y-51500000D02*
X82975000Y-55025000D01*
X102600000Y-24000000D02*
X102600000Y-26400000D01*
X91675000Y-47000000D02*
X91675000Y-45825000D01*
X102000000Y-27000000D02*
X101500000Y-27000000D01*
X67637500Y-40687500D02*
X67637500Y-51362500D01*
%TO.N,DM3#*%
X66687500Y-44312500D02*
X66500000Y-44500000D01*
X46500000Y-56500000D02*
X47500000Y-55500000D01*
X46500000Y-62500000D02*
X46500000Y-56500000D01*
X66687500Y-40687500D02*
X66687500Y-44312500D01*
X42000000Y-64000000D02*
X45000000Y-64000000D01*
X45000000Y-64000000D02*
X46500000Y-62500000D01*
X47500000Y-55500000D02*
X48000000Y-55500000D01*
%TO.N,DP3#*%
X68587500Y-40687500D02*
X69812500Y-40687500D01*
X57262500Y-51500000D02*
X50500000Y-51500000D01*
X45500000Y-56500000D02*
X45500000Y-61000000D01*
X44500000Y-62000000D02*
X42000000Y-62000000D01*
X69812500Y-40687500D02*
X70000000Y-40500000D01*
X45500000Y-61000000D02*
X44500000Y-62000000D01*
X50500000Y-51500000D02*
X45500000Y-56500000D01*
X57887500Y-52125000D02*
X57262500Y-51500000D01*
%TO.N,Net-(C2-Pad1)*%
X49500000Y-32712500D02*
X49500000Y-30500000D01*
X49500000Y-30500000D02*
X55312500Y-30500000D01*
X47237500Y-34975000D02*
X49500000Y-32712500D01*
X47237500Y-35000000D02*
X47237500Y-34975000D01*
%TO.N,Net-(J4-VBUS)*%
X48212500Y-56287500D02*
X48500000Y-56000000D01*
X55000000Y-56000000D02*
X55725000Y-56725000D01*
X48500000Y-56000000D02*
X55000000Y-56000000D01*
X46000000Y-66500000D02*
X47000000Y-65500000D01*
X55725000Y-56725000D02*
X55725000Y-58500000D01*
X42000000Y-66500000D02*
X46000000Y-66500000D01*
X48212500Y-58500000D02*
X48212500Y-56287500D01*
X47000000Y-65500000D02*
X47000000Y-59712500D01*
X47000000Y-59712500D02*
X48212500Y-58500000D01*
%TO.N,Net-(C3-Pad2)*%
X57975000Y-81000000D02*
X57975000Y-76200000D01*
X57975000Y-76200000D02*
X57275000Y-75500000D01*
%TO.N,Net-(J5-VBUS)*%
X55725000Y-74725000D02*
X55725000Y-75500000D01*
X50000000Y-74000000D02*
X55000000Y-74000000D01*
X48712500Y-75500000D02*
X48712500Y-79787500D01*
X48712500Y-79787500D02*
X46000000Y-82500000D01*
X55000000Y-74000000D02*
X55725000Y-74725000D01*
X48712500Y-75500000D02*
X48712500Y-75287500D01*
X46000000Y-82500000D02*
X42150000Y-82500000D01*
X48712500Y-75287500D02*
X50000000Y-74000000D01*
%TO.N,Net-(GL850G1-AVDD@1)*%
X86225000Y-40775000D02*
X87725000Y-39275000D01*
X86225000Y-44500000D02*
X86225000Y-40775000D01*
%TO.N,DM1#*%
X48600000Y-72900000D02*
X47500000Y-74000000D01*
X47500000Y-74000000D02*
X47500000Y-78500000D01*
X46000000Y-80000000D02*
X42150000Y-80000000D01*
X47500000Y-78500000D02*
X46000000Y-80000000D01*
X68000000Y-72900000D02*
X48600000Y-72900000D01*
%TO.N,DP1#*%
X68000000Y-71000000D02*
X68000000Y-69000000D01*
X46000000Y-68500000D02*
X45000000Y-69500000D01*
X45000000Y-69500000D02*
X45000000Y-76500000D01*
X45000000Y-76500000D02*
X43500000Y-78000000D01*
X68000000Y-69000000D02*
X67500000Y-68500000D01*
X67500000Y-68500000D02*
X46000000Y-68500000D01*
X43500000Y-78000000D02*
X42150000Y-78000000D01*
%TO.N,Net-(J3-VBUS)*%
X48437500Y-42500000D02*
X48437500Y-46987500D01*
X48437500Y-46987500D02*
X48425000Y-47000000D01*
X42150000Y-50500000D02*
X47000000Y-50500000D01*
X48425000Y-49075000D02*
X48425000Y-47000000D01*
X47000000Y-50500000D02*
X48425000Y-49075000D01*
%TO.N,DM2#*%
X71500000Y-54500000D02*
X71500000Y-69775000D01*
X71500000Y-69775000D02*
X70275000Y-71000000D01*
X62000000Y-53900000D02*
X62100000Y-54000000D01*
X42150000Y-48000000D02*
X44500000Y-48000000D01*
X44500000Y-48000000D02*
X46000000Y-49500000D01*
X71000000Y-54000000D02*
X71500000Y-54500000D01*
X62100000Y-54000000D02*
X71000000Y-54000000D01*
%TO.N,DP2#*%
X72000000Y-72000000D02*
X71100000Y-72900000D01*
X42150000Y-46000000D02*
X45500000Y-46000000D01*
X64000000Y-53000000D02*
X71000000Y-53000000D01*
X63000000Y-52000000D02*
X64000000Y-53000000D01*
X71000000Y-53000000D02*
X72000000Y-54000000D01*
X71100000Y-72900000D02*
X70275000Y-72900000D01*
X72000000Y-54000000D02*
X72000000Y-72000000D01*
%TO.N,Net-(GL850G1-AVDD@3)*%
X77000000Y-42500000D02*
X80000000Y-42500000D01*
X76225000Y-37050000D02*
X76225000Y-41725000D01*
X80375000Y-42875000D02*
X80375000Y-44500000D01*
X76225000Y-41725000D02*
X77000000Y-42500000D01*
X80000000Y-42500000D02*
X80375000Y-42875000D01*
%TO.N,+5V*%
X69510000Y-23490000D02*
X69500000Y-23500000D01*
X59712500Y-30500000D02*
X61212500Y-32000000D01*
X58112500Y-27887500D02*
X58500000Y-27500000D01*
X93125000Y-30550000D02*
X81550000Y-30550000D01*
X51400000Y-82000000D02*
X52000000Y-82000000D01*
X71500000Y-21500000D02*
X74000000Y-21500000D01*
X77920000Y-69000000D02*
X75420000Y-66500000D01*
X60712500Y-47500000D02*
X58612500Y-47500000D01*
X58112500Y-30500000D02*
X59712500Y-30500000D01*
X71175000Y-21825000D02*
X71500000Y-21500000D01*
X58612500Y-55612500D02*
X59000000Y-56000000D01*
X61000000Y-64500000D02*
X58400000Y-64500000D01*
X75420000Y-66500000D02*
X72600000Y-66500000D01*
X58112500Y-30500000D02*
X58112500Y-27887500D01*
X58612500Y-47500000D02*
X58612500Y-55612500D01*
X52000000Y-82000000D02*
X53000000Y-81000000D01*
X71175000Y-23490000D02*
X71175000Y-21825000D01*
X61212500Y-47000000D02*
X60712500Y-47500000D01*
X61212500Y-32000000D02*
X61212500Y-47000000D01*
X71175000Y-23490000D02*
X69510000Y-23490000D01*
X81000000Y-30000000D02*
X80500000Y-29500000D01*
X81550000Y-30550000D02*
X81000000Y-30000000D01*
X78725000Y-76050000D02*
X72050000Y-76050000D01*
X72050000Y-76050000D02*
X71500000Y-75500000D01*
%TO.N,Net-(C1-Pad1)*%
X55500000Y-64600000D02*
X55600000Y-64500000D01*
X55000000Y-67500000D02*
X55500000Y-67000000D01*
X48025000Y-66525000D02*
X49000000Y-67500000D01*
X48025000Y-60262500D02*
X49787500Y-58500000D01*
X48025000Y-64500000D02*
X48025000Y-66525000D01*
X49000000Y-67500000D02*
X55000000Y-67500000D01*
X55500000Y-67000000D02*
X55500000Y-64600000D01*
X48025000Y-64500000D02*
X48025000Y-60262500D01*
%TO.N,Net-(C3-Pad1)*%
X48600000Y-82000000D02*
X48600000Y-80900000D01*
X54212500Y-79212500D02*
X50287500Y-79212500D01*
X50287500Y-75500000D02*
X50287500Y-79212500D01*
X55025000Y-80025000D02*
X54212500Y-79212500D01*
X55025000Y-81000000D02*
X55025000Y-80025000D01*
X48100000Y-81400000D02*
X48100000Y-82000000D01*
X48600000Y-80900000D02*
X50287500Y-79212500D01*
%TO.N,Net-(C4-Pad1)*%
X56687500Y-46625000D02*
X55812500Y-47500000D01*
X50000000Y-47000000D02*
X55312500Y-47000000D01*
X55312500Y-47000000D02*
X55812500Y-47500000D01*
X56687500Y-42500000D02*
X56687500Y-46625000D01*
%TO.N,Net-(GL850G1-RREF)*%
X84275000Y-44500000D02*
X84275000Y-39875000D01*
X84275000Y-39875000D02*
X83400000Y-39000000D01*
%TO.N,Net-(GL850G1-3V3)*%
X94000000Y-58000000D02*
X93075000Y-58925000D01*
X92937500Y-53437500D02*
X94000000Y-54500000D01*
X84612501Y-53437500D02*
X83625000Y-52449999D01*
X83625000Y-52449999D02*
X83625000Y-51500000D01*
X93075000Y-58925000D02*
X90500000Y-58925000D01*
X94000000Y-54500000D02*
X94000000Y-58000000D01*
X91000000Y-53437500D02*
X92937500Y-53437500D01*
X91000000Y-53437500D02*
X84612501Y-53437500D01*
%TO.N,AVDD*%
X87275000Y-58500000D02*
X87275000Y-60275000D01*
X87275000Y-60275000D02*
X87500000Y-60500000D01*
X87500000Y-60500000D02*
X90500000Y-60500000D01*
%TO.N,X1*%
X86225000Y-25275000D02*
X86000000Y-25500000D01*
X85950000Y-25450000D02*
X82500000Y-25450000D01*
X82975000Y-44500000D02*
X82975000Y-42525000D01*
X82500000Y-29000000D02*
X82500000Y-25450000D01*
X86225000Y-24000000D02*
X86225000Y-25275000D01*
X82975000Y-42525000D02*
X83000000Y-42500000D01*
X86000000Y-25500000D02*
X85950000Y-25450000D01*
%TO.N,X2*%
X90225000Y-24000000D02*
X90225000Y-22225000D01*
X84000000Y-21500000D02*
X82500000Y-23000000D01*
X82325000Y-42825000D02*
X82000000Y-42500000D01*
X82325000Y-44500000D02*
X82325000Y-42825000D01*
X82500000Y-23000000D02*
X82500000Y-23250000D01*
X79500000Y-31000000D02*
X79500000Y-22000000D01*
X90225000Y-22225000D02*
X89500000Y-21500000D01*
X79500000Y-22000000D02*
X80000000Y-21500000D01*
X81000000Y-32500000D02*
X79500000Y-31000000D01*
X82000000Y-21500000D02*
X82500000Y-22000000D01*
X89500000Y-21500000D02*
X84000000Y-21500000D01*
X82500000Y-22000000D02*
X82500000Y-23250000D01*
X81100000Y-32500000D02*
X81000000Y-32500000D01*
X80000000Y-21500000D02*
X82000000Y-21500000D01*
%TO.N,PGANG*%
X90000000Y-46500000D02*
X91675000Y-44825000D01*
X91675000Y-44825000D02*
X91675000Y-42500000D01*
X92712500Y-39287500D02*
X94712500Y-39287500D01*
X79725000Y-50275000D02*
X83500000Y-46500000D01*
X83500000Y-46500000D02*
X90000000Y-46500000D01*
X91675000Y-42500000D02*
X91675000Y-40325000D01*
X91675000Y-40325000D02*
X92712500Y-39287500D01*
X79725000Y-51500000D02*
X79725000Y-50275000D01*
%TO.N,Net-(LED1-A)*%
X98825000Y-42500000D02*
X98825000Y-39825000D01*
X98825000Y-39825000D02*
X98287500Y-39287500D01*
X98287500Y-39287500D02*
X96287500Y-39287500D01*
%TO.N,Net-(GL850G1-DVDD)*%
X77000000Y-56500000D02*
X74500000Y-56500000D01*
X73725000Y-57275000D02*
X73725000Y-58500000D01*
X78000000Y-54000000D02*
X78425000Y-53575000D01*
X78425000Y-53575000D02*
X78425000Y-51500000D01*
X74500000Y-56500000D02*
X73725000Y-57275000D01*
%TO.N,DVDD*%
X93325000Y-42500000D02*
X97175000Y-42500000D01*
%TO.N,Net-(J1-VBUS)*%
X96000000Y-65500000D02*
X96000000Y-72325000D01*
X83000000Y-65500000D02*
X83500000Y-65000000D01*
X83500000Y-65000000D02*
X95500000Y-65000000D01*
X83000000Y-69475000D02*
X83000000Y-69000000D01*
X83000000Y-69000000D02*
X83000000Y-65500000D01*
X95500000Y-65000000D02*
X96000000Y-65500000D01*
%TO.N,DMO*%
X87000000Y-69000000D02*
X91500000Y-69000000D01*
X85000000Y-71000000D02*
X87000000Y-69000000D01*
X84400000Y-75100000D02*
X85000000Y-74500000D01*
X91500000Y-69000000D02*
X93500000Y-71000000D01*
X85000000Y-74500000D02*
X85000000Y-71000000D01*
X81100000Y-75000000D02*
X81000000Y-75100000D01*
X81000000Y-75100000D02*
X84400000Y-75100000D01*
X93500000Y-71000000D02*
X93500000Y-72325000D01*
%TO.N,DPO*%
X91000000Y-79000000D02*
X91500000Y-78500000D01*
X81500000Y-79000000D02*
X91000000Y-79000000D01*
X81000000Y-78500000D02*
X81500000Y-79000000D01*
X81000000Y-77000000D02*
X81000000Y-78500000D01*
X91500000Y-78500000D02*
X91500000Y-72325000D01*
%TO.N,Net-(F5-Pad1)*%
X113000000Y-24000000D02*
X105400000Y-24000000D01*
X114500000Y-25500000D02*
X113000000Y-24000000D01*
X114500000Y-43042500D02*
X114500000Y-25500000D01*
%TO.N,OVCURR1#*%
X93325000Y-47000000D02*
X96175000Y-47000000D01*
%TO.N,Net-(Q1-G)*%
X95000000Y-33000000D02*
X95500000Y-33500000D01*
X97675000Y-32825000D02*
X97675000Y-31500000D01*
X95500000Y-33500000D02*
X97000000Y-33500000D01*
X97000000Y-33500000D02*
X97675000Y-32825000D01*
X95000000Y-31500000D02*
X95000000Y-33000000D01*
%TD*%
M02*
