M48
; DRILL file KiCad 10.0.5 date 2026-08-20T07:40:26
; FORMAT={-:-/ absolute / metric / decimal}
; #@! TF.CreationDate,2026-08-20T07:40:26+05:30
; #@! TF.GenerationSoftware,Kicad,Pcbnew,10.0.5
; #@! TF.FileFunction,MixedPlating,1,2
FMAT,2
METRIC
; #@! TA.AperFunction,Plated,PTH,ViaDrill
T1C0.300
; #@! TA.AperFunction,Plated,PTH,ComponentDrill
T2C0.700
; #@! TA.AperFunction,Plated,PTH,ComponentDrill
T3C0.800
; #@! TA.AperFunction,Plated,PTH,ComponentDrill
T4C0.900
; #@! TA.AperFunction,Plated,PTH,ComponentDrill
T5C1.000
; #@! TA.AperFunction,NonPlated,NPTH,ComponentDrill
T6C1.100
%
G90
G05
T1
X44.5Y-59.5
X45.5Y-46.0
X46.0Y-29.5
X46.0Y-49.5
X48.0Y-55.5
X50.975Y-62.525
X53.0Y-81.0
X53.737Y-44.762
X57.0Y-52.5
X57.887Y-52.125
X58.5Y-27.5
X59.0Y-56.0
X60.0Y-28.5
X61.0Y-64.5
X62.0Y-53.9
X63.0Y-52.0
X66.0Y-59.5
X66.0Y-65.5
X66.0Y-72.0
X66.5Y-44.5
X67.5Y-51.5
X69.0Y-61.5
X69.5Y-23.5
X70.0Y-40.5
X71.5Y-75.5
X72.6Y-66.5
X74.0Y-21.5
X75.0Y-61.5
X77.0Y-56.5
X77.775Y-27.725
X78.0Y-54.0
X78.0Y-56.5
X79.0Y-54.0
X80.5Y-29.5
X81.1Y-32.5
X82.0Y-42.5
X82.5Y-29.0
X83.0Y-42.5
X85.0Y-29.0
X85.0Y-35.5
X85.5Y-42.0
X89.0Y-70.1
X91.0Y-28.5
X92.0Y-45.5
X93.0Y-56.5
X94.5Y-52.0
X99.0Y-27.0
X101.5Y-27.0
T3
X77.92Y-69.0
X83.0Y-69.0
T6
X39.25Y-60.7
X39.25Y-65.3
X39.4Y-26.2
X39.4Y-30.8
X39.4Y-44.7
X39.4Y-49.3
X39.4Y-76.7
X39.4Y-81.3
X90.25Y-74.925
X94.75Y-74.925
T2
G00X86.65Y-74.025
M15
G01X86.65Y-75.825
M16
G05
G00X98.35Y-74.025
M15
G01X98.35Y-75.825
M16
G05
T4
G00X40.05Y-57.3
M15
G01X38.45Y-57.3
M16
G05
G00X40.05Y-68.7
M15
G01X38.45Y-68.7
M16
G05
G00X40.2Y-22.8
M15
G01X38.6Y-22.8
M16
G05
G00X40.2Y-34.2
M15
G01X38.6Y-34.2
M16
G05
G00X40.2Y-41.3
M15
G01X38.6Y-41.3
M16
G05
G00X40.2Y-52.7
M15
G01X38.6Y-52.7
M16
G05
G00X40.2Y-73.3
M15
G01X38.6Y-73.3
M16
G05
G00X40.2Y-84.7
M15
G01X38.6Y-84.7
M16
G05
T5
G00X108.5Y-42.042
M15
G01X108.5Y-44.042
M16
G05
G00X110.5Y-47.742
M15
G01X112.5Y-47.742
M16
G05
G00X114.5Y-42.042
M15
G01X114.5Y-44.042
M16
G05
M30
